<?xml version="1.0" encoding="UTF-8"?>
<svg width="240.99" height="209.88" version="1.1" viewBox="0 0 240.99 209.88" xmlns="http://www.w3.org/2000/svg" xmlns:cc="http://creativecommons.org/ns#" xmlns:dc="http://purl.org/dc/elements/1.1/" xmlns:rdf="http://www.w3.org/1999/02/22-rdf-syntax-ns#" xmlns:xlink="http://www.w3.org/1999/xlink">
 <defs>
  <style>.cls-1{font-size:80px;font-family:IndustryInc-Base, Industry Inc;}.cls-2{font-size:60px;font-family:IndustryInc-InlineStroke, Industry Inc;}.cls-3,.cls-7{fill:#333;}.cls-4{fill:#009cdc;}.cls-5{fill:url(#linear-gradient);}.cls-6{fill:url(#linear-gradient-2);}.cls-7{stroke:#fff;stroke-miterlimit:10;stroke-width:3px;}.cls-8{fill:none;}.cls-9{fill:#fff;}.cls-10{fill:red;}.cls-11{fill:url(#linear-gradient-4);}</style>
  <linearGradient id="linear-gradient" x1="429.04" x2="584.54" y1="-2.66" y2="121.93" gradientUnits="userSpaceOnUse">
   <stop stop-color="#ed1c24" offset=".28"/>
   <stop stop-color="#f7931e" offset=".82"/>
  </linearGradient>
  <linearGradient id="linear-gradient-2" x1="505.35" x2="579.66" y1="61.85" y2="121.39" gradientUnits="userSpaceOnUse">
   <stop stop-color="#fcee21" offset=".29"/>
   <stop stop-color="#f7931e" offset=".85"/>
  </linearGradient>
  <linearGradient id="linear-gradient-4" x1="505.35" x2="579.66" y1="61.85" y2="121.39" gradientTransform="translate(-222.08 -24.348)" xlink:href="#linear-gradient-2"/>
  <linearGradient id="linearGradient916" x1="429.04" x2="584.54" y1="-2.66" y2="121.93" gradientTransform="translate(-222.08 -24.348)" gradientUnits="userSpaceOnUse" xlink:href="#linear-gradient"/>
  <linearGradient id="linearGradient918" x1="505.35" x2="579.66" y1="61.85" y2="121.39" gradientTransform="translate(-222.08 -24.348)" gradientUnits="userSpaceOnUse" xlink:href="#linear-gradient-2"/>
 </defs>
 <title>LogoBlack_SVG</title>
 <g transform="translate(-204.06 24.385)" data-name="Laag 1">
  <path class="cls-3" d="m292.26 114.03-5.34 8.87 5.83 7.17 12.65-3.56c1.64 1.72 3.29 3.44 4.93 5.17-0.6 3-1.21 5.94-1.81 8.91l9.61 6 7.08-5.67 45.37 24.73q-0.7 5.31-1.42 10.63l7.09 3.54 8.5-7.08 14.88 4.25q2.49 4.25 5 8.5h8.51l4.25-8.5h8.5l4.26 8.5h7.77q2.13-4.6 4.25-9.21l-147.4-62.36"/>
  <path class="cls-3" d="m296.51 100.73a1.85 1.85 0 0 0-1.61-0.36 1.31 1.31 0 0 0-0.56 0.7c-0.62 1.53-2 2.15-3.08 3.91a9.27 9.27 0 0 0-1.25 4c-0.47 3.79 1.71 7.15 3.2 9.22 6.45 9 12.33 12.83 12.33 12.83 32.86 21.49 77.73 43.41 81.22 45.47a15.91 15.91 0 0 0 3.5 1.59 20.85 20.85 0 0 0 3.29 0.71 42.87 42.87 0 0 0 5.84 0.45l35.95-0.08a34.44 34.44 0 0 0 5.59-1.37 5 5 0 0 0 4.08-5.59 13 13 0 0 0-1.83-6.46c-3.91-6.32-135.59-60.47-146.67-65.02z"/>
  <path class="cls-4" d="m307.09 90.652a37.66 37.66 0 0 0-6.75 7.13 12 12 0 0 0-2.29 4.29c-0.3 1.29-0.53 3.69 1.46 7.79 2.38 4.9 6.1 8.37 12.58 14 11.73 10.1 15.54 12.12 18.32 11a10.18 10.18 0 0 1 4.57-1.44 8.85 8.85 0 0 1 4.61 1.38c15.87 9.23 16.37 9.51 26.08 15.06a7.78 7.78 0 0 1 3.5 3.2c1 2 0.19 3.2 0.84 5 0.41 1.14 1.17 1.86 6.72 4.78a118.21 118.21 0 0 0 10.84 5.16c1.57 0.64 2.66 1.07 4.13 1.56a53.13 53.13 0 0 0 11.79 2.41 185.48 185.48 0 0 0 31 0.07c2.1-0.15 5.26-0.44 7.5-2.79 2.89-3 2.29-7.46 2.25-7.71-0.64-4.21-4.1-6.74-7.29-9-5.77-4.07-12.13-6-22.79-9.16a38.28 38.28 0 0 1-5.63-2.13c-2.57-1.21-3.94-1.66-6-3.5a138.55 138.55 0 0 1-20.17-22.33c-1.1-1.5-2-2.78-2.12-3a129 129 0 0 1-11.32-20.69c-0.63-1.51-1.08-2.57-1.63-4.13a63.17 63.17 0 0 1-3-12.45c-0.11-0.8-0.25-2-0.36-3.33"/>
  <path class="cls-5" d="m334.44 114.38c-14.45-3.56-19.66-5.21-38.47-13.2-10.48-4.45-17-7.84-23.65-12.6a125.57 125.57 0 0 1-11.34-9.24 134.56 134.56 0 0 1-18.36-20.69 115.5 115.5 0 0 1-8.93-14.87 6.94 6.94 0 0 1-0.62-2.11 1.17 1.17 0 0 1 1.68-1.33 5.93 5.93 0 0 1 1.08 0.51c1.11 0.68 2.2 1.41 3.33 2.06a46.22 46.22 0 0 0 12.92 5.28 24.16 24.16 0 0 0 13.38-0.38 11.43 11.43 0 0 0 7.64-7.5 17.7 17.7 0 0 0 0-10.07 16.22 16.22 0 0 0-3.28-6.1 39.27 39.27 0 0 0-9.06-7.84 103.06 103.06 0 0 0-12.3-6.92c-6.88-3.33-13.81-6.54-20.69-9.87a84 84 0 0 1-15.68-9.3 22 22 0 0 1-7.09-9 9.45 9.45 0 0 1-0.93-3.94 1.51 1.51 0 0 1 1.13-1.62c0.62-0.14 1 0.11 1.47 1a9.68 9.68 0 0 0 2.82 3.57c0.81 0.62 1.67 1.19 2.52 1.75a58.72 58.72 0 0 0 13.38 6.38 99.43 99.43 0 0 0 18.4 4.3c8.34 1.18 16.74 1.71 25.13 2.36 6.45 0.51 12.9 1 19.29 2.09a154.24 154.24 0 0 1 33.1 9.48 97.13 97.13 0 0 1 17.67 9.25c2.86 1.93 5.62 4 8.3 6.22a62.23 62.23 0 0 1 10.53 11.16 59.17 59.17 0 0 1 10.71 24.49q0.12 0.57 0.27 1.5s0.61 3.61 0.86 7.66a147.53 147.53 0 0 1-1.37 23.45" fill="url(#linearGradient916)"/>
  <path class="cls-6" d="m368.19 83.792a37.69 37.69 0 0 0-0.92-6.12c-2.21-9.46-7.56-15.86-10.66-19.48a53.25 53.25 0 0 0-5.61-5.69 55.57 55.57 0 0 0-7.79-5.58c-3.78-2.28-7.69-4.37-11.61-6.42-6.19-3.25-12.54-6.2-18.41-10a47 47 0 0 1-7.62-6.07c-1.51-1.51-2.93-3.11-4.44-4.62a8.43 8.43 0 0 0-1.78-1.29c-0.61-0.34-1-0.1-1 0.59a3.27 3.27 0 0 0 0.14 1.17c0.29 0.9 0.62 1.79 1 2.66a42 42 0 0 0 8.23 12.29c2.86 3.1 5.84 6.09 8.74 9.15a35.74 35.74 0 0 1 5.09 6.52 13.76 13.76 0 0 1 2 6.71 14.23 14.23 0 0 1-1.07 5.42 10.76 10.76 0 0 1-10.23 7.18 22.49 22.49 0 0 1-8.81-1.68 31.28 31.28 0 0 1-13-9.11c-0.7-0.85-1.4-1.69-2.14-2.51a3.5 3.5 0 0 0-0.93-0.73 0.7 0.7 0 0 0-1.13 0.6 7 7 0 0 0 0.05 1.58 26.69 26.69 0 0 0 1.59 5.6 99.24 99.24 0 0 0 6.33 14.36 60.28 60.28 0 0 0 8.21 10.87 176.18 176.18 0 0 0 21.87 20.46" fill="url(#linearGradient918)"/>
  <circle class="cls-3" transform="rotate(-19.33)" cx="292.61" cy="195.31" r="27.67"/>
  <circle class="cls-7" cx="340.76" cy="87.442" r="18.65"/>
  <line class="cls-8" x1="340.76" x2="340.76" y1="87.442" y2="59.772"/>
  <path class="cls-3" d="m340.76 87.442h-27.66a27.59 27.59 0 0 0 27.66 27.66z"/>
  <path class="cls-3" d="m340.76 59.772a27.68 27.68 0 0 1 27.67 27.67h-27.67z"/>
  <rect class="cls-9" transform="rotate(29.887)" x="363.2" y="-49.029" width="31.287" height="5.6895" stroke-width="1.0034"/>
  <circle class="cls-9" cx="335.71" cy="140.24" r="2.83"/>
  <circle class="cls-9" cx="362.71" cy="155.84" r="2.83"/>
  <path class="cls-3" d="m292.26 114.03-5.34 8.87 5.83 7.17 12.65-3.56c1.64 1.72 3.29 3.44 4.93 5.17-0.6 3-1.21 5.94-1.81 8.91l9.61 6 7.08-5.67 45.37 24.73q-0.7 5.31-1.42 10.63l7.09 3.54 8.5-7.08 14.88 4.25q2.49 4.25 5 8.5h8.51l4.25-8.5h8.5l4.26 8.5h7.77q2.13-4.6 4.25-9.21l-147.4-62.36"/>
  <path class="cls-3" d="m296.51 100.73a1.85 1.85 0 0 0-1.61-0.36 1.31 1.31 0 0 0-0.56 0.7c-0.62 1.53-2 2.15-3.08 3.91a9.27 9.27 0 0 0-1.25 4c-0.47 3.79 1.71 7.15 3.2 9.22 6.45 9 12.33 12.83 12.33 12.83 32.86 21.49 77.73 43.41 81.22 45.47a15.91 15.91 0 0 0 3.5 1.59 20.85 20.85 0 0 0 3.29 0.71 42.87 42.87 0 0 0 5.84 0.45l35.95-0.08a34.44 34.44 0 0 0 5.59-1.37 5 5 0 0 0 4.08-5.59 13 13 0 0 0-1.83-6.46c-3.91-6.32-135.59-60.47-146.67-65.02z"/>
  <path class="cls-4" d="m307.09 90.652a37.66 37.66 0 0 0-6.75 7.13 12 12 0 0 0-2.29 4.29c-0.3 1.29-0.53 3.69 1.46 7.79 2.2 4.54 5.78 8.26 12.58 14 12.47 10.43 15.75 11.61 18.39 10.79a11.36 11.36 0 0 1 4.5-1.25 9.14 9.14 0 0 1 4.61 1.38c8.32 4.73 14.24 8.17 26.08 15.06a9.26 9.26 0 0 1 4.38 4.32c0.75 1.87 0.06 2.64 0.85 4.33s2.35 2.91 5.83 4.33c10.43 4.24 8.25 4.56 15 6.72 7.1 2.29 11.11 2.44 13.27 2.44 0 0 10.62 1.39 29.5 0 2.05-0.14 5.24-0.42 7.5-2.79 2.89-3 2.29-7.46 2.25-7.71-0.64-4.21-4.1-6.74-7.29-9-5.77-4.07-12.13-6-22.79-9.16a39.54 39.54 0 0 1-5.63-2.13 38.56 38.56 0 0 1-6-3.5 158.29 158.29 0 0 1-20.17-22.33c-1.1-1.5-2-2.78-2.12-3a129 129 0 0 1-11.33-20.63c-0.63-1.51-1.08-2.57-1.63-4.13a62.51 62.51 0 0 1-3.37-15.78"/>
  <path class="cls-5" d="m334.44 114.38c-14.45-3.56-19.66-5.21-38.47-13.2-10.48-4.45-17-7.84-23.65-12.6a125.57 125.57 0 0 1-11.34-9.24 134.56 134.56 0 0 1-18.36-20.69 115.5 115.5 0 0 1-8.93-14.87 6.94 6.94 0 0 1-0.62-2.11 1.17 1.17 0 0 1 1.68-1.33 5.93 5.93 0 0 1 1.08 0.51c1.11 0.68 2.2 1.41 3.33 2.06a46.22 46.22 0 0 0 12.92 5.28 24.16 24.16 0 0 0 13.38-0.38 11.43 11.43 0 0 0 7.64-7.5 17.7 17.7 0 0 0 0-10.07 16.22 16.22 0 0 0-3.28-6.1 39.27 39.27 0 0 0-9.06-7.84 103.06 103.06 0 0 0-12.3-6.92c-6.88-3.33-13.81-6.54-20.69-9.87a84 84 0 0 1-15.68-9.3 22 22 0 0 1-7.09-9 9.45 9.45 0 0 1-0.93-3.94 1.51 1.51 0 0 1 1.13-1.62c0.62-0.14 1 0.11 1.47 1a9.68 9.68 0 0 0 2.82 3.57c0.81 0.62 1.67 1.19 2.52 1.75a58.72 58.72 0 0 0 13.38 6.38 99.43 99.43 0 0 0 18.4 4.3c8.34 1.18 16.74 1.71 25.13 2.36 6.45 0.51 12.9 1 19.29 2.09a154.24 154.24 0 0 1 33.1 9.48 97.13 97.13 0 0 1 17.67 9.25c2.86 1.93 5.62 4 8.3 6.22a62.23 62.23 0 0 1 10.53 11.16 59.17 59.17 0 0 1 10.71 24.49q0.12 0.57 0.27 1.5s0.61 3.61 0.86 7.66a147.53 147.53 0 0 1-1.37 23.45" fill="url(#linearGradient916)"/>
  <path class="cls-10" d="m321.46 107.26c7.66 5.17 13.17 6.64 13 7.12"/>
  <path class="cls-11" d="m368.19 83.792a37.69 37.69 0 0 0-0.92-6.12c-2.21-9.46-7.56-15.86-10.66-19.48a53.25 53.25 0 0 0-5.61-5.69 55.57 55.57 0 0 0-7.79-5.58c-3.78-2.28-7.69-4.37-11.61-6.42-6.19-3.25-12.54-6.2-18.41-10a47 47 0 0 1-7.62-6.07c-1.51-1.51-2.93-3.11-4.44-4.62a8.43 8.43 0 0 0-1.78-1.29c-0.61-0.34-1-0.1-1 0.59a3.27 3.27 0 0 0 0.14 1.17c0.29 0.9 0.62 1.79 1 2.66a42 42 0 0 0 8.23 12.29c2.86 3.1 5.84 6.09 8.74 9.15a35.74 35.74 0 0 1 5.09 6.52 13.76 13.76 0 0 1 2 6.71 14.23 14.23 0 0 1-1.07 5.42 10.76 10.76 0 0 1-10.23 7.18 22.49 22.49 0 0 1-8.81-1.68 31.28 31.28 0 0 1-13-9.11c-0.7-0.85-1.4-1.69-2.14-2.51a3.5 3.5 0 0 0-0.93-0.73 0.7 0.7 0 0 0-1.13 0.6 7 7 0 0 0 0.05 1.58 26.69 26.69 0 0 0 1.59 5.6 99.24 99.24 0 0 0 6.33 14.36 60.28 60.28 0 0 0 8.21 10.87 176.18 176.18 0 0 0 21.87 20.46" fill="url(#linear-gradient-4)"/>
  <circle class="cls-3" transform="rotate(-19.33)" cx="292.61" cy="195.31" r="27.67"/>
  <circle class="cls-7" cx="340.76" cy="87.442" r="18.65"/>
  <line class="cls-8" x1="340.76" x2="340.76" y1="87.442" y2="59.772"/>
  <path class="cls-3" d="m340.76 87.442h-27.66a27.59 27.59 0 0 0 27.66 27.66z"/>
  <path class="cls-3" d="m340.76 59.772a27.68 27.68 0 0 1 27.67 27.67h-27.67z"/>
  <rect class="cls-9" transform="rotate(30)" x="360.92" y="-50.12" width="31.18" height="5.67"/>
  <circle class="cls-9" cx="336.21" cy="139.5" r="2.83"/>
  <circle class="cls-9" cx="363.21" cy="155.1" r="2.83"/>
  <path class="cls-3" d="m292.26 114.03-5.34 8.87 5.83 7.17 12.65-3.56c1.64 1.72 3.29 3.44 4.93 5.17-0.6 3-1.21 5.94-1.81 8.91l9.61 6 7.08-5.67 45.37 24.73q-0.7 5.31-1.42 10.63l7.09 3.54 8.5-7.08 14.88 4.25q2.49 4.25 5 8.5h8.51l4.25-8.5h8.5l4.26 8.5h7.77q2.13-4.6 4.25-9.21l-147.4-62.36"/>
  <path class="cls-3" d="m296.51 100.73a1.85 1.85 0 0 0-1.61-0.36 1.31 1.31 0 0 0-0.56 0.7c-0.62 1.53-2 2.15-3.08 3.91a9.27 9.27 0 0 0-1.25 4c-0.47 3.79 1.71 7.15 3.2 9.22 6.45 9 12.33 12.83 12.33 12.83 32.86 21.49 77.73 43.41 81.22 45.47a15.91 15.91 0 0 0 3.5 1.59 20.85 20.85 0 0 0 3.29 0.71 42.87 42.87 0 0 0 5.84 0.45l35.95-0.08a34.44 34.44 0 0 0 5.59-1.37 5 5 0 0 0 4.08-5.59 13 13 0 0 0-1.83-6.46c-3.91-6.32-135.59-60.47-146.67-65.02z"/>
  <path class="cls-4" d="m307.09 90.652a37.66 37.66 0 0 0-6.75 7.13 12 12 0 0 0-2.29 4.29c-0.3 1.29-0.53 3.69 1.46 7.79 2.2 4.54 5.78 8.26 12.58 14 12.47 10.43 15.75 11.61 18.39 10.79a11.36 11.36 0 0 1 4.5-1.25 9.14 9.14 0 0 1 4.61 1.38c8.32 4.73 14.24 8.17 26.08 15.06a9.26 9.26 0 0 1 4.38 4.32c0.75 1.87 0.06 2.64 0.85 4.33s2.35 2.91 5.83 4.33c10.43 4.24 8.25 4.56 15 6.72 7.1 2.29 11.11 2.44 13.27 2.44 0 0 10.62 1.39 29.5 0 2.05-0.14 5.24-0.42 7.5-2.79 2.89-3 2.29-7.46 2.25-7.71-0.64-4.21-4.1-6.74-7.29-9-5.77-4.07-12.13-6-22.79-9.16a39.54 39.54 0 0 1-5.63-2.13 38.56 38.56 0 0 1-6-3.5 158.29 158.29 0 0 1-20.17-22.33c-1.1-1.5-2-2.78-2.12-3a129 129 0 0 1-11.33-20.63c-0.63-1.51-1.08-2.57-1.63-4.13a62.51 62.51 0 0 1-3.37-15.78"/>
  <path class="cls-5" d="m334.44 114.38c-14.45-3.56-19.66-5.21-38.47-13.2-10.48-4.45-17-7.84-23.65-12.6a125.57 125.57 0 0 1-11.34-9.24 134.56 134.56 0 0 1-18.36-20.69 115.5 115.5 0 0 1-8.93-14.87 6.94 6.94 0 0 1-0.62-2.11 1.17 1.17 0 0 1 1.68-1.33 5.93 5.93 0 0 1 1.08 0.51c1.11 0.68 2.2 1.41 3.33 2.06a46.22 46.22 0 0 0 12.92 5.28 24.16 24.16 0 0 0 13.38-0.38 11.43 11.43 0 0 0 7.64-7.5 17.7 17.7 0 0 0 0-10.07 16.22 16.22 0 0 0-3.28-6.1 39.27 39.27 0 0 0-9.06-7.84 103.06 103.06 0 0 0-12.3-6.92c-6.88-3.33-13.81-6.54-20.69-9.87a84 84 0 0 1-15.68-9.3 22 22 0 0 1-7.09-9 9.45 9.45 0 0 1-0.93-3.94 1.51 1.51 0 0 1 1.13-1.62c0.62-0.14 1 0.11 1.47 1a9.68 9.68 0 0 0 2.82 3.57c0.81 0.62 1.67 1.19 2.52 1.75a58.72 58.72 0 0 0 13.38 6.38 99.43 99.43 0 0 0 18.4 4.3c8.34 1.18 16.74 1.71 25.13 2.36 6.45 0.51 12.9 1 19.29 2.09a154.24 154.24 0 0 1 33.1 9.48 97.13 97.13 0 0 1 17.67 9.25c2.86 1.93 5.62 4 8.3 6.22a62.23 62.23 0 0 1 10.53 11.16 59.17 59.17 0 0 1 10.71 24.49q0.12 0.57 0.27 1.5s0.61 3.61 0.86 7.66a147.53 147.53 0 0 1-1.37 23.45" fill="url(#linearGradient916)"/>
  <path class="cls-10" d="m321.46 107.26c7.66 5.17 13.17 6.64 13 7.12"/>
  <path class="cls-11" d="m368.19 83.792a37.69 37.69 0 0 0-0.92-6.12c-2.21-9.46-7.56-15.86-10.66-19.48a53.25 53.25 0 0 0-5.61-5.69 55.57 55.57 0 0 0-7.79-5.58c-3.78-2.28-7.69-4.37-11.61-6.42-6.19-3.25-12.54-6.2-18.41-10a47 47 0 0 1-7.62-6.07c-1.51-1.51-2.93-3.11-4.44-4.62a8.43 8.43 0 0 0-1.78-1.29c-0.61-0.34-1-0.1-1 0.59a3.27 3.27 0 0 0 0.14 1.17c0.29 0.9 0.62 1.79 1 2.66a42 42 0 0 0 8.23 12.29c2.86 3.1 5.84 6.09 8.74 9.15a35.74 35.74 0 0 1 5.09 6.52 13.76 13.76 0 0 1 2 6.71 14.23 14.23 0 0 1-1.07 5.42 10.76 10.76 0 0 1-10.23 7.18 22.49 22.49 0 0 1-8.81-1.68 31.28 31.28 0 0 1-13-9.11c-0.7-0.85-1.4-1.69-2.14-2.51a3.5 3.5 0 0 0-0.93-0.73 0.7 0.7 0 0 0-1.13 0.6 7 7 0 0 0 0.05 1.58 26.69 26.69 0 0 0 1.59 5.6 99.24 99.24 0 0 0 6.33 14.36 60.28 60.28 0 0 0 8.21 10.87 176.18 176.18 0 0 0 21.87 20.46" fill="url(#linear-gradient-4)"/>
  <circle class="cls-3" transform="rotate(-19.33)" cx="292.61" cy="195.31" r="27.67"/>
  <circle class="cls-7" cx="340.76" cy="87.442" r="18.65"/>
  <line class="cls-8" x1="340.76" x2="340.76" y1="87.442" y2="59.772"/>
  <path class="cls-3" d="m340.76 87.442h-27.66a27.59 27.59 0 0 0 27.66 27.66z"/>
  <path class="cls-3" d="m340.76 59.772a27.68 27.68 0 0 1 27.67 27.67h-27.67z"/>
  <rect class="cls-9" transform="rotate(30)" x="360.92" y="-50.12" width="31.18" height="5.67"/>
  <circle class="cls-9" cx="336.21" cy="139.5" r="2.83"/>
  <circle class="cls-9" cx="363.21" cy="155.1" r="2.83"/>
  <path class="cls-3" d="m292.26 114.03-5.34 8.87 5.83 7.17 12.65-3.56c1.64 1.72 3.29 3.44 4.93 5.17-0.6 3-1.21 5.94-1.81 8.91l9.61 6 7.08-5.67 45.37 24.73q-0.7 5.31-1.42 10.63l7.09 3.54 8.5-7.08 14.88 4.25q2.49 4.25 5 8.5h8.51l4.25-8.5h8.5l4.26 8.5h7.77q2.13-4.6 4.25-9.21l-147.4-62.36"/>
  <path class="cls-3" d="m296.51 100.73a1.85 1.85 0 0 0-1.61-0.36 1.31 1.31 0 0 0-0.56 0.7c-0.62 1.53-2 2.15-3.08 3.91a9.27 9.27 0 0 0-1.25 4c-0.47 3.79 1.71 7.15 3.2 9.22 6.45 9 12.33 12.83 12.33 12.83 32.86 21.49 77.73 43.41 81.22 45.47a15.91 15.91 0 0 0 3.5 1.59 20.85 20.85 0 0 0 3.29 0.71 42.87 42.87 0 0 0 5.84 0.45l35.95-0.08a34.44 34.44 0 0 0 5.59-1.37 5 5 0 0 0 4.08-5.59 13 13 0 0 0-1.83-6.46c-3.91-6.32-135.59-60.47-146.67-65.02z"/>
  <path class="cls-4" d="m307.09 90.652a37.66 37.66 0 0 0-6.75 7.13 12 12 0 0 0-2.29 4.29c-0.3 1.29-0.53 3.69 1.46 7.79 2.2 4.54 5.78 8.26 12.58 14 12.47 10.43 15.75 11.61 18.39 10.79a11.36 11.36 0 0 1 4.5-1.25 9.14 9.14 0 0 1 4.61 1.38c8.32 4.73 14.24 8.17 26.08 15.06a9.26 9.26 0 0 1 4.38 4.32c0.75 1.87 0.06 2.64 0.85 4.33s2.35 2.91 5.83 4.33c10.43 4.24 8.25 4.56 15 6.72 7.1 2.29 11.11 2.44 13.27 2.44 0 0 10.62 1.39 29.5 0 2.05-0.14 5.24-0.42 7.5-2.79 2.89-3 2.29-7.46 2.25-7.71-0.64-4.21-4.1-6.74-7.29-9-5.77-4.07-12.13-6-22.79-9.16a39.54 39.54 0 0 1-5.63-2.13 38.56 38.56 0 0 1-6-3.5 158.29 158.29 0 0 1-20.17-22.33c-1.1-1.5-2-2.78-2.12-3a129 129 0 0 1-11.33-20.63c-0.63-1.51-1.08-2.57-1.63-4.13a62.51 62.51 0 0 1-3.37-15.78"/>
  <path class="cls-5" d="m334.44 114.38c-14.45-3.56-19.66-5.21-38.47-13.2-10.48-4.45-17-7.84-23.65-12.6a125.57 125.57 0 0 1-11.34-9.24 134.56 134.56 0 0 1-18.36-20.69 115.5 115.5 0 0 1-8.93-14.87 6.94 6.94 0 0 1-0.62-2.11 1.17 1.17 0 0 1 1.68-1.33 5.93 5.93 0 0 1 1.08 0.51c1.11 0.68 2.2 1.41 3.33 2.06a46.22 46.22 0 0 0 12.92 5.28 24.16 24.16 0 0 0 13.38-0.38 11.43 11.43 0 0 0 7.64-7.5 17.7 17.7 0 0 0 0-10.07 16.22 16.22 0 0 0-3.28-6.1 39.27 39.27 0 0 0-9.06-7.84 103.06 103.06 0 0 0-12.3-6.92c-6.88-3.33-13.81-6.54-20.69-9.87a84 84 0 0 1-15.68-9.3 22 22 0 0 1-7.09-9 9.45 9.45 0 0 1-0.93-3.94 1.51 1.51 0 0 1 1.13-1.62c0.62-0.14 1 0.11 1.47 1a9.68 9.68 0 0 0 2.82 3.57c0.81 0.62 1.67 1.19 2.52 1.75a58.72 58.72 0 0 0 13.38 6.38 99.43 99.43 0 0 0 18.4 4.3c8.34 1.18 16.74 1.71 25.13 2.36 6.45 0.51 12.9 1 19.29 2.09a154.24 154.24 0 0 1 33.1 9.48 97.13 97.13 0 0 1 17.67 9.25c2.86 1.93 5.62 4 8.3 6.22a62.23 62.23 0 0 1 10.53 11.16 59.17 59.17 0 0 1 10.71 24.49q0.12 0.57 0.27 1.5s0.61 3.61 0.86 7.66a147.53 147.53 0 0 1-1.37 23.45" fill="url(#linearGradient916)"/>
  <path class="cls-10" d="m321.46 107.26c7.66 5.17 13.17 6.64 13 7.12"/>
  <path class="cls-11" d="m368.19 83.792a37.69 37.69 0 0 0-0.92-6.12c-2.21-9.46-7.56-15.86-10.66-19.48a53.25 53.25 0 0 0-5.61-5.69 55.57 55.57 0 0 0-7.79-5.58c-3.78-2.28-7.69-4.37-11.61-6.42-6.19-3.25-12.54-6.2-18.41-10a47 47 0 0 1-7.62-6.07c-1.51-1.51-2.93-3.11-4.44-4.62a8.43 8.43 0 0 0-1.78-1.29c-0.61-0.34-1-0.1-1 0.59a3.27 3.27 0 0 0 0.14 1.17c0.29 0.9 0.62 1.79 1 2.66a42 42 0 0 0 8.23 12.29c2.86 3.1 5.84 6.09 8.74 9.15a35.74 35.74 0 0 1 5.09 6.52 13.76 13.76 0 0 1 2 6.71 14.23 14.23 0 0 1-1.07 5.42 10.76 10.76 0 0 1-10.23 7.18 22.49 22.49 0 0 1-8.81-1.68 31.28 31.28 0 0 1-13-9.11c-0.7-0.85-1.4-1.69-2.14-2.51a3.5 3.5 0 0 0-0.93-0.73 0.7 0.7 0 0 0-1.13 0.6 7 7 0 0 0 0.05 1.58 26.69 26.69 0 0 0 1.59 5.6 99.24 99.24 0 0 0 6.33 14.36 60.28 60.28 0 0 0 8.21 10.87 176.18 176.18 0 0 0 21.87 20.46" fill="url(#linear-gradient-4)"/>
  <circle class="cls-3" transform="rotate(-19.33)" cx="292.61" cy="195.31" r="27.67"/>
  <circle class="cls-7" cx="340.76" cy="87.442" r="18.65"/>
  <line class="cls-8" x1="340.76" x2="340.76" y1="87.442" y2="59.772"/>
  <path class="cls-3" d="m340.76 87.442h-27.66a27.59 27.59 0 0 0 27.66 27.66z"/>
  <path class="cls-3" d="m340.76 59.772a27.68 27.68 0 0 1 27.67 27.67h-27.67z"/>
  <rect class="cls-9" transform="rotate(30)" x="360.92" y="-50.12" width="31.18" height="5.67"/>
  <circle class="cls-9" cx="336.21" cy="139.5" r="2.83"/>
  <circle class="cls-9" cx="363.21" cy="155.1" r="2.83"/>
  <path class="cls-3" d="m292.26 114.03-5.34 8.87 5.83 7.17 12.65-3.56c1.64 1.72 3.29 3.44 4.93 5.17-0.6 3-1.21 5.94-1.81 8.91l9.61 6 7.08-5.67 45.37 24.73q-0.7 5.31-1.42 10.63l7.09 3.54 8.5-7.08 14.88 4.25q2.49 4.25 5 8.5h8.51l4.25-8.5h8.5l4.26 8.5h7.77q2.13-4.6 4.25-9.21l-147.4-62.36"/>
  <path class="cls-3" d="m296.51 100.73a1.85 1.85 0 0 0-1.61-0.36 1.31 1.31 0 0 0-0.56 0.7c-0.62 1.53-2 2.15-3.08 3.91a9.27 9.27 0 0 0-1.25 4c-0.47 3.79 1.71 7.15 3.2 9.22 6.45 9 12.33 12.83 12.33 12.83 32.86 21.49 77.73 43.41 81.22 45.47a15.91 15.91 0 0 0 3.5 1.59 20.85 20.85 0 0 0 3.29 0.71 42.87 42.87 0 0 0 5.84 0.45l35.95-0.08a34.44 34.44 0 0 0 5.59-1.37 5 5 0 0 0 4.08-5.59 13 13 0 0 0-1.83-6.46c-3.91-6.32-135.59-60.47-146.67-65.02z"/>
  <path class="cls-4" d="m307.09 90.652a37.66 37.66 0 0 0-6.75 7.13 12 12 0 0 0-2.29 4.29c-0.3 1.29-0.53 3.69 1.46 7.79 2.2 4.54 5.78 8.26 12.58 14 12.47 10.43 15.75 11.61 18.39 10.79a11.36 11.36 0 0 1 4.5-1.25 9.14 9.14 0 0 1 4.61 1.38c8.32 4.73 14.24 8.17 26.08 15.06a9.26 9.26 0 0 1 4.38 4.32c0.75 1.87 0.06 2.64 0.85 4.33s2.35 2.91 5.83 4.33c10.43 4.24 8.25 4.56 15 6.72 7.1 2.29 11.11 2.44 13.27 2.44 0 0 10.62 1.39 29.5 0 2.05-0.14 5.24-0.42 7.5-2.79 2.89-3 2.29-7.46 2.25-7.71-0.64-4.21-4.1-6.74-7.29-9-5.77-4.07-12.13-6-22.79-9.16a39.54 39.54 0 0 1-5.63-2.13 38.56 38.56 0 0 1-6-3.5 158.29 158.29 0 0 1-20.17-22.33c-1.1-1.5-2-2.78-2.12-3a129 129 0 0 1-11.33-20.63c-0.63-1.51-1.08-2.57-1.63-4.13a62.51 62.51 0 0 1-3.37-15.78"/>
  <path class="cls-5" d="m334.44 114.38c-14.45-3.56-19.66-5.21-38.47-13.2-10.48-4.45-17-7.84-23.65-12.6a125.57 125.57 0 0 1-11.34-9.24 134.56 134.56 0 0 1-18.36-20.69 115.5 115.5 0 0 1-8.93-14.87 6.94 6.94 0 0 1-0.62-2.11 1.17 1.17 0 0 1 1.68-1.33 5.93 5.93 0 0 1 1.08 0.51c1.11 0.68 2.2 1.41 3.33 2.06a46.22 46.22 0 0 0 12.92 5.28 24.16 24.16 0 0 0 13.38-0.38 11.43 11.43 0 0 0 7.64-7.5 17.7 17.7 0 0 0 0-10.07 16.22 16.22 0 0 0-3.28-6.1 39.27 39.27 0 0 0-9.06-7.84 103.06 103.06 0 0 0-12.3-6.92c-6.88-3.33-13.81-6.54-20.69-9.87a84 84 0 0 1-15.68-9.3 22 22 0 0 1-7.09-9 9.45 9.45 0 0 1-0.93-3.94 1.51 1.51 0 0 1 1.13-1.62c0.62-0.14 1 0.11 1.47 1a9.68 9.68 0 0 0 2.82 3.57c0.81 0.62 1.67 1.19 2.52 1.75a58.72 58.72 0 0 0 13.38 6.38 99.43 99.43 0 0 0 18.4 4.3c8.34 1.18 16.74 1.71 25.13 2.36 6.45 0.51 12.9 1 19.29 2.09a154.24 154.24 0 0 1 33.1 9.48 97.13 97.13 0 0 1 17.67 9.25c2.86 1.93 5.62 4 8.3 6.22a62.23 62.23 0 0 1 10.53 11.16 59.17 59.17 0 0 1 10.71 24.49q0.12 0.57 0.27 1.5s0.61 3.61 0.86 7.66a147.53 147.53 0 0 1-1.37 23.45" fill="url(#linearGradient916)"/>
  <path class="cls-10" d="m321.46 107.26c7.66 5.17 13.17 6.64 13 7.12"/>
  <path class="cls-11" d="m368.19 83.792a37.69 37.69 0 0 0-0.92-6.12c-2.21-9.46-7.56-15.86-10.66-19.48a53.25 53.25 0 0 0-5.61-5.69 55.57 55.57 0 0 0-7.79-5.58c-3.78-2.28-7.69-4.37-11.61-6.42-6.19-3.25-12.54-6.2-18.41-10a47 47 0 0 1-7.62-6.07c-1.51-1.51-2.93-3.11-4.44-4.62a8.43 8.43 0 0 0-1.78-1.29c-0.61-0.34-1-0.1-1 0.59a3.27 3.27 0 0 0 0.14 1.17c0.29 0.9 0.62 1.79 1 2.66a42 42 0 0 0 8.23 12.29c2.86 3.1 5.84 6.09 8.74 9.15a35.74 35.74 0 0 1 5.09 6.52 13.76 13.76 0 0 1 2 6.71 14.23 14.23 0 0 1-1.07 5.42 10.76 10.76 0 0 1-10.23 7.18 22.49 22.49 0 0 1-8.81-1.68 31.28 31.28 0 0 1-13-9.11c-0.7-0.85-1.4-1.69-2.14-2.51a3.5 3.5 0 0 0-0.93-0.73 0.7 0.7 0 0 0-1.13 0.6 7 7 0 0 0 0.05 1.58 26.69 26.69 0 0 0 1.59 5.6 99.24 99.24 0 0 0 6.33 14.36 60.28 60.28 0 0 0 8.21 10.87 176.18 176.18 0 0 0 21.87 20.46" fill="url(#linear-gradient-4)"/>
  <circle class="cls-3" transform="rotate(-19.33)" cx="292.61" cy="195.31" r="27.67"/>
  <circle class="cls-7" cx="340.76" cy="87.442" r="18.65"/>
  <line class="cls-8" x1="340.76" x2="340.76" y1="87.442" y2="59.772"/>
  <path class="cls-3" d="m340.76 87.442h-27.66a27.59 27.59 0 0 0 27.66 27.66z"/>
  <path class="cls-3" d="m340.76 59.772a27.68 27.68 0 0 1 27.67 27.67h-27.67z"/>
  <rect class="cls-9" transform="rotate(30)" x="360.92" y="-50.12" width="31.18" height="5.67"/>
  <circle class="cls-9" cx="336.21" cy="139.5" r="2.83"/>
  <circle class="cls-9" cx="363.21" cy="155.1" r="2.83"/>
  <path class="cls-3" d="m292.26 114.03-5.34 8.87 5.83 7.17 12.65-3.56c1.64 1.72 3.29 3.44 4.93 5.17-0.6 3-1.21 5.94-1.81 8.91l9.61 6 7.08-5.67 45.37 24.73q-0.7 5.31-1.42 10.63l7.09 3.54 8.5-7.08 14.88 4.25q2.49 4.25 5 8.5h8.51l4.25-8.5h8.5l4.26 8.5h7.77q2.13-4.6 4.25-9.21l-147.4-62.36"/>
  <path class="cls-3" d="m296.51 100.73a1.85 1.85 0 0 0-1.61-0.36 1.31 1.31 0 0 0-0.56 0.7c-0.62 1.53-2 2.15-3.08 3.91a9.27 9.27 0 0 0-1.25 4c-0.47 3.79 1.71 7.15 3.2 9.22 6.45 9 12.33 12.83 12.33 12.83 32.86 21.49 77.73 43.41 81.22 45.47a15.91 15.91 0 0 0 3.5 1.59 20.85 20.85 0 0 0 3.29 0.71 42.87 42.87 0 0 0 5.84 0.45l35.95-0.08a34.44 34.44 0 0 0 5.59-1.37 5 5 0 0 0 4.08-5.59 13 13 0 0 0-1.83-6.46c-3.91-6.32-135.59-60.47-146.67-65.02z"/>
  <path class="cls-4" d="m307.09 90.652a37.66 37.66 0 0 0-6.75 7.13 12 12 0 0 0-2.29 4.29c-0.3 1.29-0.53 3.69 1.46 7.79 2.2 4.54 5.78 8.26 12.58 14 12.47 10.43 15.75 11.61 18.39 10.79a11.36 11.36 0 0 1 4.5-1.25 9.14 9.14 0 0 1 4.61 1.38c8.32 4.73 14.24 8.17 26.08 15.06a9.26 9.26 0 0 1 4.38 4.32c0.75 1.87 0.06 2.64 0.85 4.33s2.35 2.91 5.83 4.33c10.43 4.24 8.25 4.56 15 6.72 7.1 2.29 11.11 2.44 13.27 2.44 0 0 10.62 1.39 29.5 0 2.05-0.14 5.24-0.42 7.5-2.79 2.89-3 2.29-7.46 2.25-7.71-0.64-4.21-4.1-6.74-7.29-9-5.77-4.07-12.13-6-22.79-9.16a39.54 39.54 0 0 1-5.63-2.13 38.56 38.56 0 0 1-6-3.5 158.29 158.29 0 0 1-20.17-22.33c-1.1-1.5-2-2.78-2.12-3a129 129 0 0 1-11.33-20.63c-0.63-1.51-1.08-2.57-1.63-4.13a62.51 62.51 0 0 1-3.37-15.78"/>
  <path class="cls-5" d="m334.44 114.38c-14.45-3.56-19.66-5.21-38.47-13.2-10.48-4.45-17-7.84-23.65-12.6a125.57 125.57 0 0 1-11.34-9.24 134.56 134.56 0 0 1-18.36-20.69 115.5 115.5 0 0 1-8.93-14.87 6.94 6.94 0 0 1-0.62-2.11 1.17 1.17 0 0 1 1.68-1.33 5.93 5.93 0 0 1 1.08 0.51c1.11 0.68 2.2 1.41 3.33 2.06a46.22 46.22 0 0 0 12.92 5.28 24.16 24.16 0 0 0 13.38-0.38 11.43 11.43 0 0 0 7.64-7.5 17.7 17.7 0 0 0 0-10.07 16.22 16.22 0 0 0-3.28-6.1 39.27 39.27 0 0 0-9.06-7.84 103.06 103.06 0 0 0-12.3-6.92c-6.88-3.33-13.81-6.54-20.69-9.87a84 84 0 0 1-15.68-9.3 22 22 0 0 1-7.09-9 9.45 9.45 0 0 1-0.93-3.94 1.51 1.51 0 0 1 1.13-1.62c0.62-0.14 1 0.11 1.47 1a9.68 9.68 0 0 0 2.82 3.57c0.81 0.62 1.67 1.19 2.52 1.75a58.72 58.72 0 0 0 13.38 6.38 99.43 99.43 0 0 0 18.4 4.3c8.34 1.18 16.74 1.71 25.13 2.36 6.45 0.51 12.9 1 19.29 2.09a154.24 154.24 0 0 1 33.1 9.48 97.13 97.13 0 0 1 17.67 9.25c2.86 1.93 5.62 4 8.3 6.22a62.23 62.23 0 0 1 10.53 11.16 59.17 59.17 0 0 1 10.71 24.49q0.12 0.57 0.27 1.5s0.61 3.61 0.86 7.66a147.53 147.53 0 0 1-1.37 23.45" fill="url(#linearGradient916)"/>
  <path class="cls-10" d="m321.46 107.26c7.66 5.17 13.17 6.64 13 7.12"/>
  <path class="cls-11" d="m368.19 83.792a37.69 37.69 0 0 0-0.92-6.12c-2.21-9.46-7.56-15.86-10.66-19.48a53.25 53.25 0 0 0-5.61-5.69 55.57 55.57 0 0 0-7.79-5.58c-3.78-2.28-7.69-4.37-11.61-6.42-6.19-3.25-12.54-6.2-18.41-10a47 47 0 0 1-7.62-6.07c-1.51-1.51-2.93-3.11-4.44-4.62a8.43 8.43 0 0 0-1.78-1.29c-0.61-0.34-1-0.1-1 0.59a3.27 3.27 0 0 0 0.14 1.17c0.29 0.9 0.62 1.79 1 2.66a42 42 0 0 0 8.23 12.29c2.86 3.1 5.84 6.09 8.74 9.15a35.74 35.74 0 0 1 5.09 6.52 13.76 13.76 0 0 1 2 6.71 14.23 14.23 0 0 1-1.07 5.42 10.76 10.76 0 0 1-10.23 7.18 22.49 22.49 0 0 1-8.81-1.68 31.28 31.28 0 0 1-13-9.11c-0.7-0.85-1.4-1.69-2.14-2.51a3.5 3.5 0 0 0-0.93-0.73 0.7 0.7 0 0 0-1.13 0.6 7 7 0 0 0 0.05 1.58 26.69 26.69 0 0 0 1.59 5.6 99.24 99.24 0 0 0 6.33 14.36 60.28 60.28 0 0 0 8.21 10.87 176.18 176.18 0 0 0 21.87 20.46" fill="url(#linear-gradient-4)"/>
  <circle class="cls-3" transform="rotate(-19.33)" cx="292.61" cy="195.31" r="27.67"/>
  <circle class="cls-7" cx="340.76" cy="87.442" r="18.65"/>
  <line class="cls-8" x1="340.76" x2="340.76" y1="87.442" y2="59.772"/>
  <path class="cls-3" d="m340.76 87.442h-27.66a27.59 27.59 0 0 0 27.66 27.66z"/>
  <path class="cls-3" d="m340.76 59.772a27.68 27.68 0 0 1 27.67 27.67h-27.67z"/>
  <rect class="cls-9" transform="rotate(30)" x="360.92" y="-50.12" width="31.18" height="5.67"/>
  <circle class="cls-9" cx="336.21" cy="139.5" r="2.83"/>
  <circle class="cls-9" cx="363.21" cy="155.1" r="2.83"/>
  <path class="cls-3" d="m292.26 114.03-5.34 8.87 5.83 7.17 12.65-3.56c1.64 1.72 3.29 3.44 4.93 5.17-0.6 3-1.21 5.94-1.81 8.91l9.61 6 7.08-5.67 45.37 24.73q-0.7 5.31-1.42 10.63l7.09 3.54 8.5-7.08 14.88 4.25q2.49 4.25 5 8.5h8.51l4.25-8.5h8.5l4.26 8.5h7.77q2.13-4.6 4.25-9.21l-147.4-62.36"/>
  <path class="cls-3" d="m296.51 100.73a1.85 1.85 0 0 0-1.61-0.36 1.31 1.31 0 0 0-0.56 0.7c-0.62 1.53-2 2.15-3.08 3.91a9.27 9.27 0 0 0-1.25 4c-0.47 3.79 1.71 7.15 3.2 9.22 6.45 9 12.33 12.83 12.33 12.83 32.86 21.49 77.73 43.41 81.22 45.47a15.91 15.91 0 0 0 3.5 1.59 20.85 20.85 0 0 0 3.29 0.71 42.87 42.87 0 0 0 5.84 0.45l35.95-0.08a34.44 34.44 0 0 0 5.59-1.37 5 5 0 0 0 4.08-5.59 13 13 0 0 0-1.83-6.46c-3.91-6.32-135.59-60.47-146.67-65.02z"/>
  <path class="cls-4" d="m307.09 90.652a37.66 37.66 0 0 0-6.75 7.13 12 12 0 0 0-2.29 4.29c-0.3 1.29-0.53 3.69 1.46 7.79 2.2 4.54 5.78 8.26 12.58 14 12.47 10.43 15.75 11.61 18.39 10.79a11.36 11.36 0 0 1 4.5-1.25 9.14 9.14 0 0 1 4.61 1.38c8.32 4.73 14.24 8.17 26.08 15.06a9.26 9.26 0 0 1 4.38 4.32c0.75 1.87 0.06 2.64 0.85 4.33s2.35 2.91 5.83 4.33c10.43 4.24 8.25 4.56 15 6.72 7.1 2.29 11.11 2.44 13.27 2.44 0 0 10.62 1.39 29.5 0 2.05-0.14 5.24-0.42 7.5-2.79 2.89-3 2.29-7.46 2.25-7.71-0.64-4.21-4.1-6.74-7.29-9-5.77-4.07-12.13-6-22.79-9.16a39.54 39.54 0 0 1-5.63-2.13 38.56 38.56 0 0 1-6-3.5 158.29 158.29 0 0 1-20.17-22.33c-1.1-1.5-2-2.78-2.12-3a129 129 0 0 1-11.33-20.63c-0.63-1.51-1.08-2.57-1.63-4.13a62.51 62.51 0 0 1-3.37-15.78"/>
  <path class="cls-5" d="m334.44 114.38c-14.45-3.56-19.66-5.21-38.47-13.2-10.48-4.45-17-7.84-23.65-12.6a125.57 125.57 0 0 1-11.34-9.24 134.56 134.56 0 0 1-18.36-20.69 115.5 115.5 0 0 1-8.93-14.87 6.94 6.94 0 0 1-0.62-2.11 1.17 1.17 0 0 1 1.68-1.33 5.93 5.93 0 0 1 1.08 0.51c1.11 0.68 2.2 1.41 3.33 2.06a46.22 46.22 0 0 0 12.92 5.28 24.16 24.16 0 0 0 13.38-0.38 11.43 11.43 0 0 0 7.64-7.5 17.7 17.7 0 0 0 0-10.07 16.22 16.22 0 0 0-3.28-6.1 39.27 39.27 0 0 0-9.06-7.84 103.06 103.06 0 0 0-12.3-6.92c-6.88-3.33-13.81-6.54-20.69-9.87a84 84 0 0 1-15.68-9.3 22 22 0 0 1-7.09-9 9.45 9.45 0 0 1-0.93-3.94 1.51 1.51 0 0 1 1.13-1.62c0.62-0.14 1 0.11 1.47 1a9.68 9.68 0 0 0 2.82 3.57c0.81 0.62 1.67 1.19 2.52 1.75a58.72 58.72 0 0 0 13.38 6.38 99.43 99.43 0 0 0 18.4 4.3c8.34 1.18 16.74 1.71 25.13 2.36 6.45 0.51 12.9 1 19.29 2.09a154.24 154.24 0 0 1 33.1 9.48 97.13 97.13 0 0 1 17.67 9.25c2.86 1.93 5.62 4 8.3 6.22a62.23 62.23 0 0 1 10.53 11.16 59.17 59.17 0 0 1 10.71 24.49q0.12 0.57 0.27 1.5s0.61 3.61 0.86 7.66a147.53 147.53 0 0 1-1.37 23.45" fill="url(#linearGradient916)"/>
  <path class="cls-10" d="m321.46 107.26c7.66 5.17 13.17 6.64 13 7.12"/>
  <path class="cls-11" d="m368.19 83.792a37.69 37.69 0 0 0-0.92-6.12c-2.21-9.46-7.56-15.86-10.66-19.48a53.25 53.25 0 0 0-5.61-5.69 55.57 55.57 0 0 0-7.79-5.58c-3.78-2.28-7.69-4.37-11.61-6.42-6.19-3.25-12.54-6.2-18.41-10a47 47 0 0 1-7.62-6.07c-1.51-1.51-2.93-3.11-4.44-4.62a8.43 8.43 0 0 0-1.78-1.29c-0.61-0.34-1-0.1-1 0.59a3.27 3.27 0 0 0 0.14 1.17c0.29 0.9 0.62 1.79 1 2.66a42 42 0 0 0 8.23 12.29c2.86 3.1 5.84 6.09 8.74 9.15a35.74 35.74 0 0 1 5.09 6.52 13.76 13.76 0 0 1 2 6.71 14.23 14.23 0 0 1-1.07 5.42 10.76 10.76 0 0 1-10.23 7.18 22.49 22.49 0 0 1-8.81-1.68 31.28 31.28 0 0 1-13-9.11c-0.7-0.85-1.4-1.69-2.14-2.51a3.5 3.5 0 0 0-0.93-0.73 0.7 0.7 0 0 0-1.13 0.6 7 7 0 0 0 0.05 1.58 26.69 26.69 0 0 0 1.59 5.6 99.24 99.24 0 0 0 6.33 14.36 60.28 60.28 0 0 0 8.21 10.87 176.18 176.18 0 0 0 21.87 20.46" fill="url(#linear-gradient-4)"/>
  <circle class="cls-3" transform="rotate(-19.33)" cx="292.61" cy="195.31" r="27.67"/>
  <circle class="cls-7" cx="340.76" cy="87.442" r="18.65"/>
  <line class="cls-8" x1="340.76" x2="340.76" y1="87.442" y2="59.772"/>
  <path class="cls-3" d="m340.76 87.442h-27.66a27.59 27.59 0 0 0 27.66 27.66z"/>
  <path class="cls-3" d="m340.76 59.772a27.68 27.68 0 0 1 27.67 27.67h-27.67z"/>
  <rect class="cls-9" transform="rotate(30)" x="360.92" y="-50.12" width="31.18" height="5.67"/>
  <circle class="cls-9" cx="336.21" cy="139.5" r="2.83"/>
  <circle class="cls-9" cx="363.21" cy="155.1" r="2.83"/>
  <path class="cls-3" d="m292.26 114.03-5.34 8.87 5.83 7.17 12.65-3.56c1.64 1.72 3.29 3.44 4.93 5.17-0.6 3-1.21 5.94-1.81 8.91l9.61 6 7.08-5.67 45.37 24.73q-0.7 5.31-1.42 10.63l7.09 3.54 8.5-7.08 14.88 4.25q2.49 4.25 5 8.5h8.51l4.25-8.5h8.5l4.26 8.5h7.77q2.13-4.6 4.25-9.21l-147.4-62.36"/>
  <path class="cls-3" d="m296.51 100.73a1.85 1.85 0 0 0-1.61-0.36 1.31 1.31 0 0 0-0.56 0.7c-0.62 1.53-2 2.15-3.08 3.91a9.27 9.27 0 0 0-1.25 4c-0.47 3.79 1.71 7.15 3.2 9.22 6.45 9 12.33 12.83 12.33 12.83 32.86 21.49 77.73 43.41 81.22 45.47a15.91 15.91 0 0 0 3.5 1.59 20.85 20.85 0 0 0 3.29 0.71 42.87 42.87 0 0 0 5.84 0.45l35.95-0.08a34.44 34.44 0 0 0 5.59-1.37 5 5 0 0 0 4.08-5.59 13 13 0 0 0-1.83-6.46c-3.91-6.32-135.59-60.47-146.67-65.02z"/>
  <path class="cls-4" d="m307.09 90.652a37.66 37.66 0 0 0-6.75 7.13 12 12 0 0 0-2.29 4.29c-0.3 1.29-0.53 3.69 1.46 7.79 2.2 4.54 5.78 8.26 12.58 14 12.47 10.43 15.75 11.61 18.39 10.79a11.36 11.36 0 0 1 4.5-1.25 9.14 9.14 0 0 1 4.61 1.38c8.32 4.73 14.24 8.17 26.08 15.06a9.26 9.26 0 0 1 4.38 4.32c0.75 1.87 0.06 2.64 0.85 4.33s2.35 2.91 5.83 4.33c10.43 4.24 8.25 4.56 15 6.72 7.1 2.29 11.11 2.44 13.27 2.44 0 0 10.62 1.39 29.5 0 2.05-0.14 5.24-0.42 7.5-2.79 2.89-3 2.29-7.46 2.25-7.71-0.64-4.21-4.1-6.74-7.29-9-5.77-4.07-12.13-6-22.79-9.16a39.54 39.54 0 0 1-5.63-2.13 38.56 38.56 0 0 1-6-3.5 158.29 158.29 0 0 1-20.17-22.33c-1.1-1.5-2-2.78-2.12-3a129 129 0 0 1-11.33-20.63c-0.63-1.51-1.08-2.57-1.63-4.13a62.51 62.51 0 0 1-3.37-15.78"/>
  <path class="cls-5" d="m334.44 114.38c-14.45-3.56-19.66-5.21-38.47-13.2-10.48-4.45-17-7.84-23.65-12.6a125.57 125.57 0 0 1-11.34-9.24 134.56 134.56 0 0 1-18.36-20.69 115.5 115.5 0 0 1-8.93-14.87 6.94 6.94 0 0 1-0.62-2.11 1.17 1.17 0 0 1 1.68-1.33 5.93 5.93 0 0 1 1.08 0.51c1.11 0.68 2.2 1.41 3.33 2.06a46.22 46.22 0 0 0 12.92 5.28 24.16 24.16 0 0 0 13.38-0.38 11.43 11.43 0 0 0 7.64-7.5 17.7 17.7 0 0 0 0-10.07 16.22 16.22 0 0 0-3.28-6.1 39.27 39.27 0 0 0-9.06-7.84 103.06 103.06 0 0 0-12.3-6.92c-6.88-3.33-13.81-6.54-20.69-9.87a84 84 0 0 1-15.68-9.3 22 22 0 0 1-7.09-9 9.45 9.45 0 0 1-0.93-3.94 1.51 1.51 0 0 1 1.13-1.62c0.62-0.14 1 0.11 1.47 1a9.68 9.68 0 0 0 2.82 3.57c0.81 0.62 1.67 1.19 2.52 1.75a58.72 58.72 0 0 0 13.38 6.38 99.43 99.43 0 0 0 18.4 4.3c8.34 1.18 16.74 1.71 25.13 2.36 6.45 0.51 12.9 1 19.29 2.09a154.24 154.24 0 0 1 33.1 9.48 97.13 97.13 0 0 1 17.67 9.25c2.86 1.93 5.62 4 8.3 6.22a62.23 62.23 0 0 1 10.53 11.16 59.17 59.17 0 0 1 10.71 24.49q0.12 0.57 0.27 1.5s0.61 3.61 0.86 7.66a147.53 147.53 0 0 1-1.37 23.45" fill="url(#linearGradient916)"/>
  <path class="cls-10" d="m321.46 107.26c7.66 5.17 13.17 6.64 13 7.12"/>
  <path class="cls-11" d="m368.19 83.792a37.69 37.69 0 0 0-0.92-6.12c-2.21-9.46-7.56-15.86-10.66-19.48a53.25 53.25 0 0 0-5.61-5.69 55.57 55.57 0 0 0-7.79-5.58c-3.78-2.28-7.69-4.37-11.61-6.42-6.19-3.25-12.54-6.2-18.41-10a47 47 0 0 1-7.62-6.07c-1.51-1.51-2.93-3.11-4.44-4.62a8.43 8.43 0 0 0-1.78-1.29c-0.61-0.34-1-0.1-1 0.59a3.27 3.27 0 0 0 0.14 1.17c0.29 0.9 0.62 1.79 1 2.66a42 42 0 0 0 8.23 12.29c2.86 3.1 5.84 6.09 8.74 9.15a35.74 35.74 0 0 1 5.09 6.52 13.76 13.76 0 0 1 2 6.71 14.23 14.23 0 0 1-1.07 5.42 10.76 10.76 0 0 1-10.23 7.18 22.49 22.49 0 0 1-8.81-1.68 31.28 31.28 0 0 1-13-9.11c-0.7-0.85-1.4-1.69-2.14-2.51a3.5 3.5 0 0 0-0.93-0.73 0.7 0.7 0 0 0-1.13 0.6 7 7 0 0 0 0.05 1.58 26.69 26.69 0 0 0 1.59 5.6 99.24 99.24 0 0 0 6.33 14.36 60.28 60.28 0 0 0 8.21 10.87 176.18 176.18 0 0 0 21.87 20.46" fill="url(#linear-gradient-4)"/>
  <circle class="cls-3" transform="rotate(-19.33)" cx="292.61" cy="195.31" r="27.67"/>
  <circle class="cls-7" cx="340.76" cy="87.442" r="18.65"/>
  <line class="cls-8" x1="340.76" x2="340.76" y1="87.442" y2="59.772"/>
  <path class="cls-3" d="m340.76 87.442h-27.66a27.59 27.59 0 0 0 27.66 27.66z"/>
  <path class="cls-3" d="m340.76 59.772a27.68 27.68 0 0 1 27.67 27.67h-27.67z"/>
  <rect class="cls-9" transform="rotate(30)" x="360.92" y="-50.12" width="31.18" height="5.67"/>
  <circle class="cls-9" cx="336.21" cy="139.5" r="2.83"/>
  <circle class="cls-9" cx="363.21" cy="155.1" r="2.83"/>
  <path class="cls-3" d="m292.26 114.03-5.34 8.87 5.83 7.17 12.65-3.56c1.64 1.72 3.29 3.44 4.93 5.17-0.6 3-1.21 5.94-1.81 8.91l9.61 6 7.08-5.67 45.37 24.73q-0.7 5.31-1.42 10.63l7.09 3.54 8.5-7.08 14.88 4.25q2.49 4.25 5 8.5h8.51l4.25-8.5h8.5l4.26 8.5h7.77q2.13-4.6 4.25-9.21l-147.4-62.36"/>
  <path class="cls-3" d="m296.51 100.73a1.85 1.85 0 0 0-1.61-0.36 1.31 1.31 0 0 0-0.56 0.7c-0.62 1.53-2 2.15-3.08 3.91a9.27 9.27 0 0 0-1.25 4c-0.47 3.79 1.71 7.15 3.2 9.22 6.45 9 12.33 12.83 12.33 12.83 32.86 21.49 77.73 43.41 81.22 45.47a15.91 15.91 0 0 0 3.5 1.59 20.85 20.85 0 0 0 3.29 0.71 42.87 42.87 0 0 0 5.84 0.45l35.95-0.08a34.44 34.44 0 0 0 5.59-1.37 5 5 0 0 0 4.08-5.59 13 13 0 0 0-1.83-6.46c-3.91-6.32-135.59-60.47-146.67-65.02z"/>
  <path class="cls-4" d="m307.09 90.652a37.66 37.66 0 0 0-6.75 7.13 12 12 0 0 0-2.29 4.29c-0.3 1.29-0.53 3.69 1.46 7.79 2.2 4.54 5.78 8.26 12.58 14 12.47 10.43 15.75 11.61 18.39 10.79a11.36 11.36 0 0 1 4.5-1.25 9.14 9.14 0 0 1 4.61 1.38c8.32 4.73 14.24 8.17 26.08 15.06a9.26 9.26 0 0 1 4.38 4.32c0.75 1.87 0.06 2.64 0.85 4.33s2.35 2.91 5.83 4.33c10.43 4.24 8.25 4.56 15 6.72 7.1 2.29 11.11 2.44 13.27 2.44 0 0 10.62 1.39 29.5 0 2.05-0.14 5.24-0.42 7.5-2.79 2.89-3 2.29-7.46 2.25-7.71-0.64-4.21-4.1-6.74-7.29-9-5.77-4.07-12.13-6-22.79-9.16a39.54 39.54 0 0 1-5.63-2.13 38.56 38.56 0 0 1-6-3.5 158.29 158.29 0 0 1-20.17-22.33c-1.1-1.5-2-2.78-2.12-3a129 129 0 0 1-11.33-20.63c-0.63-1.51-1.08-2.57-1.63-4.13a62.51 62.51 0 0 1-3.37-15.78"/>
  <path class="cls-5" d="m334.44 114.38c-14.45-3.56-19.66-5.21-38.47-13.2-10.48-4.45-17-7.84-23.65-12.6a125.57 125.57 0 0 1-11.34-9.24 134.56 134.56 0 0 1-18.36-20.69 115.5 115.5 0 0 1-8.93-14.87 6.94 6.94 0 0 1-0.62-2.11 1.17 1.17 0 0 1 1.68-1.33 5.93 5.93 0 0 1 1.08 0.51c1.11 0.68 2.2 1.41 3.33 2.06a46.22 46.22 0 0 0 12.92 5.28 24.16 24.16 0 0 0 13.38-0.38 11.43 11.43 0 0 0 7.64-7.5 17.7 17.7 0 0 0 0-10.07 16.22 16.22 0 0 0-3.28-6.1 39.27 39.27 0 0 0-9.06-7.84 103.06 103.06 0 0 0-12.3-6.92c-6.88-3.33-13.81-6.54-20.69-9.87a84 84 0 0 1-15.68-9.3 22 22 0 0 1-7.09-9 9.45 9.45 0 0 1-0.93-3.94 1.51 1.51 0 0 1 1.13-1.62c0.62-0.14 1 0.11 1.47 1a9.68 9.68 0 0 0 2.82 3.57c0.81 0.62 1.67 1.19 2.52 1.75a58.72 58.72 0 0 0 13.38 6.38 99.43 99.43 0 0 0 18.4 4.3c8.34 1.18 16.74 1.71 25.13 2.36 6.45 0.51 12.9 1 19.29 2.09a154.24 154.24 0 0 1 33.1 9.48 97.13 97.13 0 0 1 17.67 9.25c2.86 1.93 5.62 4 8.3 6.22a62.23 62.23 0 0 1 10.53 11.16 59.17 59.17 0 0 1 10.71 24.49q0.12 0.57 0.27 1.5s0.61 3.61 0.86 7.66a147.53 147.53 0 0 1-1.37 23.45" fill="url(#linearGradient916)"/>
  <path class="cls-10" d="m321.46 107.26c7.66 5.17 13.17 6.64 13 7.12"/>
  <path class="cls-11" d="m368.19 83.792a37.69 37.69 0 0 0-0.92-6.12c-2.21-9.46-7.56-15.86-10.66-19.48a53.25 53.25 0 0 0-5.61-5.69 55.57 55.57 0 0 0-7.79-5.58c-3.78-2.28-7.69-4.37-11.61-6.42-6.19-3.25-12.54-6.2-18.41-10a47 47 0 0 1-7.62-6.07c-1.51-1.51-2.93-3.11-4.44-4.62a8.43 8.43 0 0 0-1.78-1.29c-0.61-0.34-1-0.1-1 0.59a3.27 3.27 0 0 0 0.14 1.17c0.29 0.9 0.62 1.79 1 2.66a42 42 0 0 0 8.23 12.29c2.86 3.1 5.84 6.09 8.74 9.15a35.74 35.74 0 0 1 5.09 6.52 13.76 13.76 0 0 1 2 6.71 14.23 14.23 0 0 1-1.07 5.42 10.76 10.76 0 0 1-10.23 7.18 22.49 22.49 0 0 1-8.81-1.68 31.28 31.28 0 0 1-13-9.11c-0.7-0.85-1.4-1.69-2.14-2.51a3.5 3.5 0 0 0-0.93-0.73 0.7 0.7 0 0 0-1.13 0.6 7 7 0 0 0 0.05 1.58 26.69 26.69 0 0 0 1.59 5.6 99.24 99.24 0 0 0 6.33 14.36 60.28 60.28 0 0 0 8.21 10.87 176.18 176.18 0 0 0 21.87 20.46" fill="url(#linear-gradient-4)"/>
  <circle class="cls-3" transform="rotate(-19.33)" cx="292.61" cy="195.31" r="27.67"/>
  <circle class="cls-7" cx="340.76" cy="87.442" r="18.65"/>
  <line class="cls-8" x1="340.76" x2="340.76" y1="87.442" y2="59.772"/>
  <path class="cls-3" d="m340.76 87.442h-27.66a27.59 27.59 0 0 0 27.66 27.66z"/>
  <path class="cls-3" d="m340.76 59.772a27.68 27.68 0 0 1 27.67 27.67h-27.67z"/>
  <rect class="cls-9" transform="rotate(30)" x="360.92" y="-50.12" width="31.18" height="5.67"/>
  <circle class="cls-9" cx="336.21" cy="139.5" r="2.83"/>
  <circle class="cls-9" cx="363.21" cy="155.1" r="2.83"/>
  <path class="cls-3" d="m292.26 114.03-5.34 8.87 5.83 7.17 12.65-3.56c1.64 1.72 3.29 3.44 4.93 5.17-0.6 3-1.21 5.94-1.81 8.91l9.61 6 7.08-5.67 45.37 24.73q-0.7 5.31-1.42 10.63l7.09 3.54 8.5-7.08 14.88 4.25q2.49 4.25 5 8.5h8.51l4.25-8.5h8.5l4.26 8.5h7.77q2.13-4.6 4.25-9.21l-147.4-62.36"/>
  <path class="cls-3" d="m296.51 100.73a1.85 1.85 0 0 0-1.61-0.36 1.31 1.31 0 0 0-0.56 0.7c-0.62 1.53-2 2.15-3.08 3.91a9.27 9.27 0 0 0-1.25 4c-0.47 3.79 1.71 7.15 3.2 9.22 6.45 9 12.33 12.83 12.33 12.83 32.86 21.49 77.73 43.41 81.22 45.47a15.91 15.91 0 0 0 3.5 1.59 20.85 20.85 0 0 0 3.29 0.71 42.87 42.87 0 0 0 5.84 0.45l35.95-0.08a34.44 34.44 0 0 0 5.59-1.37 5 5 0 0 0 4.08-5.59 13 13 0 0 0-1.83-6.46c-3.91-6.32-135.59-60.47-146.67-65.02z"/>
  <path class="cls-4" d="m307.09 90.652a37.66 37.66 0 0 0-6.75 7.13 12 12 0 0 0-2.29 4.29c-0.3 1.29-0.53 3.69 1.46 7.79 2.2 4.54 5.78 8.26 12.58 14 12.47 10.43 15.75 11.61 18.39 10.79a11.36 11.36 0 0 1 4.5-1.25 9.14 9.14 0 0 1 4.61 1.38c8.32 4.73 14.24 8.17 26.08 15.06a9.26 9.26 0 0 1 4.38 4.32c0.75 1.87 0.06 2.64 0.85 4.33s2.35 2.91 5.83 4.33c10.43 4.24 8.25 4.56 15 6.72 7.1 2.29 11.11 2.44 13.27 2.44 0 0 10.62 1.39 29.5 0 2.05-0.14 5.24-0.42 7.5-2.79 2.89-3 2.29-7.46 2.25-7.71-0.64-4.21-4.1-6.74-7.29-9-5.77-4.07-12.13-6-22.79-9.16a39.54 39.54 0 0 1-5.63-2.13 38.56 38.56 0 0 1-6-3.5 158.29 158.29 0 0 1-20.17-22.33c-1.1-1.5-2-2.78-2.12-3a129 129 0 0 1-11.33-20.63c-0.63-1.51-1.08-2.57-1.63-4.13a62.51 62.51 0 0 1-3.37-15.78"/>
  <path class="cls-5" d="m334.44 114.38c-14.45-3.56-19.66-5.21-38.47-13.2-10.48-4.45-17-7.84-23.65-12.6a125.57 125.57 0 0 1-11.34-9.24 134.56 134.56 0 0 1-18.36-20.69 115.5 115.5 0 0 1-8.93-14.87 6.94 6.94 0 0 1-0.62-2.11 1.17 1.17 0 0 1 1.68-1.33 5.93 5.93 0 0 1 1.08 0.51c1.11 0.68 2.2 1.41 3.33 2.06a46.22 46.22 0 0 0 12.92 5.28 24.16 24.16 0 0 0 13.38-0.38 11.43 11.43 0 0 0 7.64-7.5 17.7 17.7 0 0 0 0-10.07 16.22 16.22 0 0 0-3.28-6.1 39.27 39.27 0 0 0-9.06-7.84 103.06 103.06 0 0 0-12.3-6.92c-6.88-3.33-13.81-6.54-20.69-9.87a84 84 0 0 1-15.68-9.3 22 22 0 0 1-7.09-9 9.45 9.45 0 0 1-0.93-3.94 1.51 1.51 0 0 1 1.13-1.62c0.62-0.14 1 0.11 1.47 1a9.68 9.68 0 0 0 2.82 3.57c0.81 0.62 1.67 1.19 2.52 1.75a58.72 58.72 0 0 0 13.38 6.38 99.43 99.43 0 0 0 18.4 4.3c8.34 1.18 16.74 1.71 25.13 2.36 6.45 0.51 12.9 1 19.29 2.09a154.24 154.24 0 0 1 33.1 9.48 97.13 97.13 0 0 1 17.67 9.25c2.86 1.93 5.62 4 8.3 6.22a62.23 62.23 0 0 1 10.53 11.16 59.17 59.17 0 0 1 10.71 24.49q0.12 0.57 0.27 1.5s0.61 3.61 0.86 7.66a147.53 147.53 0 0 1-1.37 23.45" fill="url(#linearGradient916)"/>
  <path class="cls-10" d="m321.46 107.26c7.66 5.17 13.17 6.64 13 7.12"/>
  <path class="cls-11" d="m368.19 83.792a37.69 37.69 0 0 0-0.92-6.12c-2.21-9.46-7.56-15.86-10.66-19.48a53.25 53.25 0 0 0-5.61-5.69 55.57 55.57 0 0 0-7.79-5.58c-3.78-2.28-7.69-4.37-11.61-6.42-6.19-3.25-12.54-6.2-18.41-10a47 47 0 0 1-7.62-6.07c-1.51-1.51-2.93-3.11-4.44-4.62a8.43 8.43 0 0 0-1.78-1.29c-0.61-0.34-1-0.1-1 0.59a3.27 3.27 0 0 0 0.14 1.17c0.29 0.9 0.62 1.79 1 2.66a42 42 0 0 0 8.23 12.29c2.86 3.1 5.84 6.09 8.74 9.15a35.74 35.74 0 0 1 5.09 6.52 13.76 13.76 0 0 1 2 6.71 14.23 14.23 0 0 1-1.07 5.42 10.76 10.76 0 0 1-10.23 7.18 22.49 22.49 0 0 1-8.81-1.68 31.28 31.28 0 0 1-13-9.11c-0.7-0.85-1.4-1.69-2.14-2.51a3.5 3.5 0 0 0-0.93-0.73 0.7 0.7 0 0 0-1.13 0.6 7 7 0 0 0 0.05 1.58 26.69 26.69 0 0 0 1.59 5.6 99.24 99.24 0 0 0 6.33 14.36 60.28 60.28 0 0 0 8.21 10.87 176.18 176.18 0 0 0 21.87 20.46" fill="url(#linear-gradient-4)"/>
  <circle class="cls-3" transform="rotate(-19.33)" cx="292.61" cy="195.31" r="27.67"/>
  <circle class="cls-7" cx="340.76" cy="87.442" r="18.65"/>
  <line class="cls-8" x1="340.76" x2="340.76" y1="87.442" y2="59.772"/>
  <path class="cls-3" d="m340.76 87.442h-27.66a27.59 27.59 0 0 0 27.66 27.66z"/>
  <path class="cls-3" d="m340.76 59.772a27.68 27.68 0 0 1 27.67 27.67h-27.67z"/>
  <rect class="cls-9" transform="rotate(30)" x="360.92" y="-50.12" width="31.18" height="5.67"/>
  <circle class="cls-9" cx="336.21" cy="139.5" r="2.83"/>
  <circle class="cls-9" cx="363.21" cy="155.1" r="2.83"/>
  <path class="cls-3" d="m292.26 114.03-5.34 8.87 5.83 7.17 12.65-3.56c1.64 1.72 3.29 3.44 4.93 5.17-0.6 3-1.21 5.94-1.81 8.91l9.61 6 7.08-5.67 45.37 24.73q-0.7 5.31-1.42 10.63l7.09 3.54 8.5-7.08 14.88 4.25q2.49 4.25 5 8.5h8.51l4.25-8.5h8.5l4.26 8.5h7.77q2.13-4.6 4.25-9.21l-147.4-62.36"/>
  <path class="cls-3" d="m296.51 100.73a1.85 1.85 0 0 0-1.61-0.36 1.31 1.31 0 0 0-0.56 0.7c-0.62 1.53-2 2.15-3.08 3.91a9.27 9.27 0 0 0-1.25 4c-0.47 3.79 1.71 7.15 3.2 9.22 6.45 9 12.33 12.83 12.33 12.83 32.86 21.49 77.73 43.41 81.22 45.47a15.91 15.91 0 0 0 3.5 1.59 20.85 20.85 0 0 0 3.29 0.71 42.87 42.87 0 0 0 5.84 0.45l35.95-0.08a34.44 34.44 0 0 0 5.59-1.37 5 5 0 0 0 4.08-5.59 13 13 0 0 0-1.83-6.46c-3.91-6.32-135.59-60.47-146.67-65.02z"/>
  <path class="cls-4" d="m307.09 90.652a37.66 37.66 0 0 0-6.75 7.13 12 12 0 0 0-2.29 4.29c-0.3 1.29-0.53 3.69 1.46 7.79 2.2 4.54 5.78 8.26 12.58 14 12.47 10.43 15.75 11.61 18.39 10.79a11.36 11.36 0 0 1 4.5-1.25 9.14 9.14 0 0 1 4.61 1.38c8.32 4.73 14.24 8.17 26.08 15.06a9.26 9.26 0 0 1 4.38 4.32c0.75 1.87 0.06 2.64 0.85 4.33s2.35 2.91 5.83 4.33c10.43 4.24 8.25 4.56 15 6.72 7.1 2.29 11.11 2.44 13.27 2.44 0 0 10.62 1.39 29.5 0 2.05-0.14 5.24-0.42 7.5-2.79 2.89-3 2.29-7.46 2.25-7.71-0.64-4.21-4.1-6.74-7.29-9-5.77-4.07-12.13-6-22.79-9.16a39.54 39.54 0 0 1-5.63-2.13 38.56 38.56 0 0 1-6-3.5 158.29 158.29 0 0 1-20.17-22.33c-1.1-1.5-2-2.78-2.12-3a129 129 0 0 1-11.33-20.63c-0.63-1.51-1.08-2.57-1.63-4.13a62.51 62.51 0 0 1-3.37-15.78"/>
  <path class="cls-5" d="m334.44 114.38c-14.45-3.56-19.66-5.21-38.47-13.2-10.48-4.45-17-7.84-23.65-12.6a125.57 125.57 0 0 1-11.34-9.24 134.56 134.56 0 0 1-18.36-20.69 115.5 115.5 0 0 1-8.93-14.87 6.94 6.94 0 0 1-0.62-2.11 1.17 1.17 0 0 1 1.68-1.33 5.93 5.93 0 0 1 1.08 0.51c1.11 0.68 2.2 1.41 3.33 2.06a46.22 46.22 0 0 0 12.92 5.28 24.16 24.16 0 0 0 13.38-0.38 11.43 11.43 0 0 0 7.64-7.5 17.7 17.7 0 0 0 0-10.07 16.22 16.22 0 0 0-3.28-6.1 39.27 39.27 0 0 0-9.06-7.84 103.06 103.06 0 0 0-12.3-6.92c-6.88-3.33-13.81-6.54-20.69-9.87a84 84 0 0 1-15.68-9.3 22 22 0 0 1-7.09-9 9.45 9.45 0 0 1-0.93-3.94 1.51 1.51 0 0 1 1.13-1.62c0.62-0.14 1 0.11 1.47 1a9.68 9.68 0 0 0 2.82 3.57c0.81 0.62 1.67 1.19 2.52 1.75a58.72 58.72 0 0 0 13.38 6.38 99.43 99.43 0 0 0 18.4 4.3c8.34 1.18 16.74 1.71 25.13 2.36 6.45 0.51 12.9 1 19.29 2.09a154.24 154.24 0 0 1 33.1 9.48 97.13 97.13 0 0 1 17.67 9.25c2.86 1.93 5.62 4 8.3 6.22a62.23 62.23 0 0 1 10.53 11.16 59.17 59.17 0 0 1 10.71 24.49q0.12 0.57 0.27 1.5s0.61 3.61 0.86 7.66a147.53 147.53 0 0 1-1.37 23.45" fill="url(#linearGradient916)"/>
  <path class="cls-10" d="m321.46 107.26c7.66 5.17 13.17 6.64 13 7.12"/>
  <path class="cls-11" d="m368.19 83.792a37.69 37.69 0 0 0-0.92-6.12c-2.21-9.46-7.56-15.86-10.66-19.48a53.25 53.25 0 0 0-5.61-5.69 55.57 55.57 0 0 0-7.79-5.58c-3.78-2.28-7.69-4.37-11.61-6.42-6.19-3.25-12.54-6.2-18.41-10a47 47 0 0 1-7.62-6.07c-1.51-1.51-2.93-3.11-4.44-4.62a8.43 8.43 0 0 0-1.78-1.29c-0.61-0.34-1-0.1-1 0.59a3.27 3.27 0 0 0 0.14 1.17c0.29 0.9 0.62 1.79 1 2.66a42 42 0 0 0 8.23 12.29c2.86 3.1 5.84 6.09 8.74 9.15a35.74 35.74 0 0 1 5.09 6.52 13.76 13.76 0 0 1 2 6.71 14.23 14.23 0 0 1-1.07 5.42 10.76 10.76 0 0 1-10.23 7.18 22.49 22.49 0 0 1-8.81-1.68 31.28 31.28 0 0 1-13-9.11c-0.7-0.85-1.4-1.69-2.14-2.51a3.5 3.5 0 0 0-0.93-0.73 0.7 0.7 0 0 0-1.13 0.6 7 7 0 0 0 0.05 1.58 26.69 26.69 0 0 0 1.59 5.6 99.24 99.24 0 0 0 6.33 14.36 60.28 60.28 0 0 0 8.21 10.87 176.18 176.18 0 0 0 21.87 20.46" fill="url(#linear-gradient-4)"/>
  <circle class="cls-3" transform="rotate(-19.33)" cx="292.61" cy="195.31" r="27.67"/>
  <circle class="cls-7" cx="340.76" cy="87.442" r="18.65"/>
  <line class="cls-8" x1="340.76" x2="340.76" y1="87.442" y2="59.772"/>
  <path class="cls-3" d="m340.76 87.442h-27.66a27.59 27.59 0 0 0 27.66 27.66z"/>
  <path class="cls-3" d="m340.76 59.772a27.68 27.68 0 0 1 27.67 27.67h-27.67z"/>
  <rect class="cls-9" transform="rotate(30)" x="360.92" y="-50.12" width="31.18" height="5.67"/>
  <circle class="cls-9" cx="336.21" cy="139.5" r="2.83"/>
  <circle class="cls-9" cx="363.21" cy="155.1" r="2.83"/>
  <path class="cls-3" d="m292.26 114.03-5.34 8.87 5.83 7.17 12.65-3.56c1.64 1.72 3.29 3.44 4.93 5.17-0.6 3-1.21 5.94-1.81 8.91l9.61 6 7.08-5.67 45.37 24.73q-0.7 5.31-1.42 10.63l7.09 3.54 8.5-7.08 14.88 4.25q2.49 4.25 5 8.5h8.51l4.25-8.5h8.5l4.26 8.5h7.77q2.13-4.6 4.25-9.21l-147.4-62.36"/>
  <path class="cls-3" d="m296.51 100.73a1.85 1.85 0 0 0-1.61-0.36 1.31 1.31 0 0 0-0.56 0.7c-0.62 1.53-2 2.15-3.08 3.91a9.27 9.27 0 0 0-1.25 4c-0.47 3.79 1.71 7.15 3.2 9.22 6.45 9 12.33 12.83 12.33 12.83 32.86 21.49 77.73 43.41 81.22 45.47a15.91 15.91 0 0 0 3.5 1.59 20.85 20.85 0 0 0 3.29 0.71 42.87 42.87 0 0 0 5.84 0.45l35.95-0.08a34.44 34.44 0 0 0 5.59-1.37 5 5 0 0 0 4.08-5.59 13 13 0 0 0-1.83-6.46c-3.91-6.32-135.59-60.47-146.67-65.02z"/>
  <path class="cls-4" d="m307.09 90.652a37.66 37.66 0 0 0-6.75 7.13 12 12 0 0 0-2.29 4.29c-0.3 1.29-0.53 3.69 1.46 7.79 2.2 4.54 5.78 8.26 12.58 14 12.47 10.43 15.75 11.61 18.39 10.79a11.36 11.36 0 0 1 4.5-1.25 9.14 9.14 0 0 1 4.61 1.38c8.32 4.73 14.24 8.17 26.08 15.06a9.26 9.26 0 0 1 4.38 4.32c0.75 1.87 0.06 2.64 0.85 4.33s2.35 2.91 5.83 4.33c10.43 4.24 8.25 4.56 15 6.72 7.1 2.29 11.11 2.44 13.27 2.44 0 0 10.62 1.39 29.5 0 2.05-0.14 5.24-0.42 7.5-2.79 2.89-3 2.29-7.46 2.25-7.71-0.64-4.21-4.1-6.74-7.29-9-5.77-4.07-12.13-6-22.79-9.16a39.54 39.54 0 0 1-5.63-2.13 38.56 38.56 0 0 1-6-3.5 158.29 158.29 0 0 1-20.17-22.33c-1.1-1.5-2-2.78-2.12-3a129 129 0 0 1-11.33-20.63c-0.63-1.51-1.08-2.57-1.63-4.13a62.51 62.51 0 0 1-3.37-15.78"/>
  <path class="cls-5" d="m334.44 114.38c-14.45-3.56-19.66-5.21-38.47-13.2-10.48-4.45-17-7.84-23.65-12.6a125.57 125.57 0 0 1-11.34-9.24 134.56 134.56 0 0 1-18.36-20.69 115.5 115.5 0 0 1-8.93-14.87 6.94 6.94 0 0 1-0.62-2.11 1.17 1.17 0 0 1 1.68-1.33 5.93 5.93 0 0 1 1.08 0.51c1.11 0.68 2.2 1.41 3.33 2.06a46.22 46.22 0 0 0 12.92 5.28 24.16 24.16 0 0 0 13.38-0.38 11.43 11.43 0 0 0 7.64-7.5 17.7 17.7 0 0 0 0-10.07 16.22 16.22 0 0 0-3.28-6.1 39.27 39.27 0 0 0-9.06-7.84 103.06 103.06 0 0 0-12.3-6.92c-6.88-3.33-13.81-6.54-20.69-9.87a84 84 0 0 1-15.68-9.3 22 22 0 0 1-7.09-9 9.45 9.45 0 0 1-0.93-3.94 1.51 1.51 0 0 1 1.13-1.62c0.62-0.14 1 0.11 1.47 1a9.68 9.68 0 0 0 2.82 3.57c0.81 0.62 1.67 1.19 2.52 1.75a58.72 58.72 0 0 0 13.38 6.38 99.43 99.43 0 0 0 18.4 4.3c8.34 1.18 16.74 1.71 25.13 2.36 6.45 0.51 12.9 1 19.29 2.09a154.24 154.24 0 0 1 33.1 9.48 97.13 97.13 0 0 1 17.67 9.25c2.86 1.93 5.62 4 8.3 6.22a62.23 62.23 0 0 1 10.53 11.16 59.17 59.17 0 0 1 10.71 24.49q0.12 0.57 0.27 1.5s0.61 3.61 0.86 7.66a147.53 147.53 0 0 1-1.37 23.45" fill="url(#linearGradient916)"/>
  <path class="cls-10" d="m321.46 107.26c7.66 5.17 13.17 6.64 13 7.12"/>
  <path class="cls-11" d="m368.19 83.792a37.69 37.69 0 0 0-0.92-6.12c-2.21-9.46-7.56-15.86-10.66-19.48a53.25 53.25 0 0 0-5.61-5.69 55.57 55.57 0 0 0-7.79-5.58c-3.78-2.28-7.69-4.37-11.61-6.42-6.19-3.25-12.54-6.2-18.41-10a47 47 0 0 1-7.62-6.07c-1.51-1.51-2.93-3.11-4.44-4.62a8.43 8.43 0 0 0-1.78-1.29c-0.61-0.34-1-0.1-1 0.59a3.27 3.27 0 0 0 0.14 1.17c0.29 0.9 0.62 1.79 1 2.66a42 42 0 0 0 8.23 12.29c2.86 3.1 5.84 6.09 8.74 9.15a35.74 35.74 0 0 1 5.09 6.52 13.76 13.76 0 0 1 2 6.71 14.23 14.23 0 0 1-1.07 5.42 10.76 10.76 0 0 1-10.23 7.18 22.49 22.49 0 0 1-8.81-1.68 31.28 31.28 0 0 1-13-9.11c-0.7-0.85-1.4-1.69-2.14-2.51a3.5 3.5 0 0 0-0.93-0.73 0.7 0.7 0 0 0-1.13 0.6 7 7 0 0 0 0.05 1.58 26.69 26.69 0 0 0 1.59 5.6 99.24 99.24 0 0 0 6.33 14.36 60.28 60.28 0 0 0 8.21 10.87 176.18 176.18 0 0 0 21.87 20.46" fill="url(#linear-gradient-4)"/>
  <circle class="cls-3" transform="rotate(-19.33)" cx="292.61" cy="195.31" r="27.67"/>
  <circle class="cls-7" cx="340.76" cy="87.442" r="18.65"/>
  <line class="cls-8" x1="340.76" x2="340.76" y1="87.442" y2="59.772"/>
  <path class="cls-3" d="m340.76 87.442h-27.66a27.59 27.59 0 0 0 27.66 27.66z"/>
  <path class="cls-3" d="m340.76 59.772a27.68 27.68 0 0 1 27.67 27.67h-27.67z"/>
  <rect class="cls-9" transform="rotate(30)" x="360.92" y="-50.12" width="31.18" height="5.67"/>
  <circle class="cls-9" cx="336.21" cy="139.5" r="2.83"/>
  <circle class="cls-9" cx="363.21" cy="155.1" r="2.83"/>
  <path class="cls-3" d="m292.26 114.03-5.34 8.87 5.83 7.17 12.65-3.56c1.64 1.72 3.29 3.44 4.93 5.17-0.6 3-1.21 5.94-1.81 8.91l9.61 6 7.08-5.67 45.37 24.73q-0.7 5.31-1.42 10.63l7.09 3.54 8.5-7.08 14.88 4.25q2.49 4.25 5 8.5h8.51l4.25-8.5h8.5l4.26 8.5h7.77q2.13-4.6 4.25-9.21l-147.4-62.36"/>
  <path class="cls-3" d="m296.51 100.73a1.85 1.85 0 0 0-1.61-0.36 1.31 1.31 0 0 0-0.56 0.7c-0.62 1.53-2 2.15-3.08 3.91a9.27 9.27 0 0 0-1.25 4c-0.47 3.79 1.71 7.15 3.2 9.22 6.45 9 12.33 12.83 12.33 12.83 32.86 21.49 77.73 43.41 81.22 45.47a15.91 15.91 0 0 0 3.5 1.59 20.85 20.85 0 0 0 3.29 0.71 42.87 42.87 0 0 0 5.84 0.45l35.95-0.08a34.44 34.44 0 0 0 5.59-1.37 5 5 0 0 0 4.08-5.59 13 13 0 0 0-1.83-6.46c-3.91-6.32-135.59-60.47-146.67-65.02z"/>
  <path class="cls-4" d="m307.09 90.652a37.66 37.66 0 0 0-6.75 7.13 12 12 0 0 0-2.29 4.29c-0.3 1.29-0.53 3.69 1.46 7.79 2.2 4.54 5.78 8.26 12.58 14 12.47 10.43 15.75 11.61 18.39 10.79a11.36 11.36 0 0 1 4.5-1.25 9.14 9.14 0 0 1 4.61 1.38c8.32 4.73 14.24 8.17 26.08 15.06a9.26 9.26 0 0 1 4.38 4.32c0.75 1.87 0.06 2.64 0.85 4.33s2.35 2.91 5.83 4.33c10.43 4.24 8.25 4.56 15 6.72 7.1 2.29 11.11 2.44 13.27 2.44 0 0 10.62 1.39 29.5 0 2.05-0.14 5.24-0.42 7.5-2.79 2.89-3 2.29-7.46 2.25-7.71-0.64-4.21-4.1-6.74-7.29-9-5.77-4.07-12.13-6-22.79-9.16a39.54 39.54 0 0 1-5.63-2.13 38.56 38.56 0 0 1-6-3.5 158.29 158.29 0 0 1-20.17-22.33c-1.1-1.5-2-2.78-2.12-3a129 129 0 0 1-11.33-20.63c-0.63-1.51-1.08-2.57-1.63-4.13a62.51 62.51 0 0 1-3.37-15.78"/>
  <path class="cls-5" d="m334.44 114.38c-14.45-3.56-19.66-5.21-38.47-13.2-10.48-4.45-17-7.84-23.65-12.6a125.57 125.57 0 0 1-11.34-9.24 134.56 134.56 0 0 1-18.36-20.69 115.5 115.5 0 0 1-8.93-14.87 6.94 6.94 0 0 1-0.62-2.11 1.17 1.17 0 0 1 1.68-1.33 5.93 5.93 0 0 1 1.08 0.51c1.11 0.68 2.2 1.41 3.33 2.06a46.22 46.22 0 0 0 12.92 5.28 24.16 24.16 0 0 0 13.38-0.38 11.43 11.43 0 0 0 7.64-7.5 17.7 17.7 0 0 0 0-10.07 16.22 16.22 0 0 0-3.28-6.1 39.27 39.27 0 0 0-9.06-7.84 103.06 103.06 0 0 0-12.3-6.92c-6.88-3.33-13.81-6.54-20.69-9.87a84 84 0 0 1-15.68-9.3 22 22 0 0 1-7.09-9 9.45 9.45 0 0 1-0.93-3.94 1.51 1.51 0 0 1 1.13-1.62c0.62-0.14 1 0.11 1.47 1a9.68 9.68 0 0 0 2.82 3.57c0.81 0.62 1.67 1.19 2.52 1.75a58.72 58.72 0 0 0 13.38 6.38 99.43 99.43 0 0 0 18.4 4.3c8.34 1.18 16.74 1.71 25.13 2.36 6.45 0.51 12.9 1 19.29 2.09a154.24 154.24 0 0 1 33.1 9.48 97.13 97.13 0 0 1 17.67 9.25c2.86 1.93 5.62 4 8.3 6.22a62.23 62.23 0 0 1 10.53 11.16 59.17 59.17 0 0 1 10.71 24.49q0.12 0.57 0.27 1.5s0.61 3.61 0.86 7.66a147.53 147.53 0 0 1-1.37 23.45" fill="url(#linearGradient916)"/>
  <path class="cls-10" d="m321.46 107.26c7.66 5.17 13.17 6.64 13 7.12"/>
  <path class="cls-11" d="m368.19 83.792a37.69 37.69 0 0 0-0.92-6.12c-2.21-9.46-7.56-15.86-10.66-19.48a53.25 53.25 0 0 0-5.61-5.69 55.57 55.57 0 0 0-7.79-5.58c-3.78-2.28-7.69-4.37-11.61-6.42-6.19-3.25-12.54-6.2-18.41-10a47 47 0 0 1-7.62-6.07c-1.51-1.51-2.93-3.11-4.44-4.62a8.43 8.43 0 0 0-1.78-1.29c-0.61-0.34-1-0.1-1 0.59a3.27 3.27 0 0 0 0.14 1.17c0.29 0.9 0.62 1.79 1 2.66a42 42 0 0 0 8.23 12.29c2.86 3.1 5.84 6.09 8.74 9.15a35.74 35.74 0 0 1 5.09 6.52 13.76 13.76 0 0 1 2 6.71 14.23 14.23 0 0 1-1.07 5.42 10.76 10.76 0 0 1-10.23 7.18 22.49 22.49 0 0 1-8.81-1.68 31.28 31.28 0 0 1-13-9.11c-0.7-0.85-1.4-1.69-2.14-2.51a3.5 3.5 0 0 0-0.93-0.73 0.7 0.7 0 0 0-1.13 0.6 7 7 0 0 0 0.05 1.58 26.69 26.69 0 0 0 1.59 5.6 99.24 99.24 0 0 0 6.33 14.36 60.28 60.28 0 0 0 8.21 10.87 176.18 176.18 0 0 0 21.87 20.46" fill="url(#linear-gradient-4)"/>
  <circle class="cls-3" transform="rotate(-19.33)" cx="292.61" cy="195.31" r="27.67"/>
  <circle class="cls-7" cx="340.76" cy="87.442" r="18.65"/>
  <line class="cls-8" x1="340.76" x2="340.76" y1="87.442" y2="59.772"/>
  <path class="cls-3" d="m340.76 87.442h-27.66a27.59 27.59 0 0 0 27.66 27.66z"/>
  <path class="cls-3" d="m340.76 59.772a27.68 27.68 0 0 1 27.67 27.67h-27.67z"/>
  <rect class="cls-9" transform="rotate(30)" x="360.92" y="-50.12" width="31.18" height="5.67"/>
  <circle class="cls-9" cx="336.21" cy="139.5" r="2.83"/>
  <circle class="cls-9" cx="363.21" cy="155.1" r="2.83"/>
  <path class="cls-3" d="m292.26 114.03-5.34 8.87 5.83 7.17 12.65-3.56c1.64 1.72 3.29 3.44 4.93 5.17-0.6 3-1.21 5.94-1.81 8.91l9.61 6 7.08-5.67 45.37 24.73q-0.7 5.31-1.42 10.63l7.09 3.54 8.5-7.08 14.88 4.25q2.49 4.25 5 8.5h8.51l4.25-8.5h8.5l4.26 8.5h7.77q2.13-4.6 4.25-9.21l-147.4-62.36"/>
  <path class="cls-3" d="m296.51 100.73a1.85 1.85 0 0 0-1.61-0.36 1.31 1.31 0 0 0-0.56 0.7c-0.62 1.53-2 2.15-3.08 3.91a9.27 9.27 0 0 0-1.25 4c-0.47 3.79 1.71 7.15 3.2 9.22 6.45 9 12.33 12.83 12.33 12.83 32.86 21.49 77.73 43.41 81.22 45.47a15.91 15.91 0 0 0 3.5 1.59 20.85 20.85 0 0 0 3.29 0.71 42.87 42.87 0 0 0 5.84 0.45l35.95-0.08a34.44 34.44 0 0 0 5.59-1.37 5 5 0 0 0 4.08-5.59 13 13 0 0 0-1.83-6.46c-3.91-6.32-135.59-60.47-146.67-65.02z"/>
  <path class="cls-4" d="m307.09 90.652a37.66 37.66 0 0 0-6.75 7.13 12 12 0 0 0-2.29 4.29c-0.3 1.29-0.53 3.69 1.46 7.79 2.2 4.54 5.78 8.26 12.58 14 12.47 10.43 15.75 11.61 18.39 10.79a11.36 11.36 0 0 1 4.5-1.25 9.14 9.14 0 0 1 4.61 1.38c8.32 4.73 14.24 8.17 26.08 15.06a9.26 9.26 0 0 1 4.38 4.32c0.75 1.87 0.06 2.64 0.85 4.33s2.35 2.91 5.83 4.33c10.43 4.24 8.25 4.56 15 6.72 7.1 2.29 11.11 2.44 13.27 2.44 0 0 10.62 1.39 29.5 0 2.05-0.14 5.24-0.42 7.5-2.79 2.89-3 2.29-7.46 2.25-7.71-0.64-4.21-4.1-6.74-7.29-9-5.77-4.07-12.13-6-22.79-9.16a39.54 39.54 0 0 1-5.63-2.13 38.56 38.56 0 0 1-6-3.5 158.29 158.29 0 0 1-20.17-22.33c-1.1-1.5-2-2.78-2.12-3a129 129 0 0 1-11.33-20.63c-0.63-1.51-1.08-2.57-1.63-4.13a62.51 62.51 0 0 1-3.37-15.78"/>
  <path class="cls-5" d="m334.44 114.38c-14.45-3.56-19.66-5.21-38.47-13.2-10.48-4.45-17-7.84-23.65-12.6a125.57 125.57 0 0 1-11.34-9.24 134.56 134.56 0 0 1-18.36-20.69 115.5 115.5 0 0 1-8.93-14.87 6.94 6.94 0 0 1-0.62-2.11 1.17 1.17 0 0 1 1.68-1.33 5.93 5.93 0 0 1 1.08 0.51c1.11 0.68 2.2 1.41 3.33 2.06a46.22 46.22 0 0 0 12.92 5.28 24.16 24.16 0 0 0 13.38-0.38 11.43 11.43 0 0 0 7.64-7.5 17.7 17.7 0 0 0 0-10.07 16.22 16.22 0 0 0-3.28-6.1 39.27 39.27 0 0 0-9.06-7.84 103.06 103.06 0 0 0-12.3-6.92c-6.88-3.33-13.81-6.54-20.69-9.87a84 84 0 0 1-15.68-9.3 22 22 0 0 1-7.09-9 9.45 9.45 0 0 1-0.93-3.94 1.51 1.51 0 0 1 1.13-1.62c0.62-0.14 1 0.11 1.47 1a9.68 9.68 0 0 0 2.82 3.57c0.81 0.62 1.67 1.19 2.52 1.75a58.72 58.72 0 0 0 13.38 6.38 99.43 99.43 0 0 0 18.4 4.3c8.34 1.18 16.74 1.71 25.13 2.36 6.45 0.51 12.9 1 19.29 2.09a154.24 154.24 0 0 1 33.1 9.48 97.13 97.13 0 0 1 17.67 9.25c2.86 1.93 5.62 4 8.3 6.22a62.23 62.23 0 0 1 10.53 11.16 59.17 59.17 0 0 1 10.71 24.49q0.12 0.57 0.27 1.5s0.61 3.61 0.86 7.66a147.53 147.53 0 0 1-1.37 23.45" fill="url(#linearGradient916)"/>
  <path class="cls-10" d="m321.46 107.26c7.66 5.17 13.17 6.64 13 7.12"/>
  <path class="cls-11" d="m368.19 83.792a37.69 37.69 0 0 0-0.92-6.12c-2.21-9.46-7.56-15.86-10.66-19.48a53.25 53.25 0 0 0-5.61-5.69 55.57 55.57 0 0 0-7.79-5.58c-3.78-2.28-7.69-4.37-11.61-6.42-6.19-3.25-12.54-6.2-18.41-10a47 47 0 0 1-7.62-6.07c-1.51-1.51-2.93-3.11-4.44-4.62a8.43 8.43 0 0 0-1.78-1.29c-0.61-0.34-1-0.1-1 0.59a3.27 3.27 0 0 0 0.14 1.17c0.29 0.9 0.62 1.79 1 2.66a42 42 0 0 0 8.23 12.29c2.86 3.1 5.84 6.09 8.74 9.15a35.74 35.74 0 0 1 5.09 6.52 13.76 13.76 0 0 1 2 6.71 14.23 14.23 0 0 1-1.07 5.42 10.76 10.76 0 0 1-10.23 7.18 22.49 22.49 0 0 1-8.81-1.68 31.28 31.28 0 0 1-13-9.11c-0.7-0.85-1.4-1.69-2.14-2.51a3.5 3.5 0 0 0-0.93-0.73 0.7 0.7 0 0 0-1.13 0.6 7 7 0 0 0 0.05 1.58 26.69 26.69 0 0 0 1.59 5.6 99.24 99.24 0 0 0 6.33 14.36 60.28 60.28 0 0 0 8.21 10.87 176.18 176.18 0 0 0 21.87 20.46" fill="url(#linear-gradient-4)"/>
  <circle class="cls-3" transform="rotate(-19.33)" cx="292.61" cy="195.31" r="27.67"/>
  <circle class="cls-7" cx="340.76" cy="87.442" r="18.65"/>
  <line class="cls-8" x1="340.76" x2="340.76" y1="87.442" y2="59.772"/>
  <path class="cls-3" d="m340.76 87.442h-27.66a27.59 27.59 0 0 0 27.66 27.66z"/>
  <path class="cls-3" d="m340.76 59.772a27.68 27.68 0 0 1 27.67 27.67h-27.67z"/>
  <rect class="cls-9" transform="rotate(30)" x="360.92" y="-50.12" width="31.18" height="5.67"/>
  <circle class="cls-9" cx="336.21" cy="139.5" r="2.83"/>
  <circle class="cls-9" cx="363.21" cy="155.1" r="2.83"/>
  <path class="cls-3" d="m292.26 114.03-5.34 8.87 5.83 7.17 12.65-3.56c1.64 1.72 3.29 3.44 4.93 5.17-0.6 3-1.21 5.94-1.81 8.91l9.61 6 7.08-5.67 45.37 24.73q-0.7 5.31-1.42 10.63l7.09 3.54 8.5-7.08 14.88 4.25q2.49 4.25 5 8.5h8.51l4.25-8.5h8.5l4.26 8.5h7.77q2.13-4.6 4.25-9.21l-147.4-62.36"/>
  <path class="cls-3" d="m296.51 100.73a1.85 1.85 0 0 0-1.61-0.36 1.31 1.31 0 0 0-0.56 0.7c-0.62 1.53-2 2.15-3.08 3.91a9.27 9.27 0 0 0-1.25 4c-0.47 3.79 1.71 7.15 3.2 9.22 6.45 9 12.33 12.83 12.33 12.83 32.86 21.49 77.73 43.41 81.22 45.47a15.91 15.91 0 0 0 3.5 1.59 20.85 20.85 0 0 0 3.29 0.71 42.87 42.87 0 0 0 5.84 0.45l35.95-0.08a34.44 34.44 0 0 0 5.59-1.37 5 5 0 0 0 4.08-5.59 13 13 0 0 0-1.83-6.46c-3.91-6.32-135.59-60.47-146.67-65.02z"/>
  <path class="cls-4" d="m307.09 90.652a37.66 37.66 0 0 0-6.75 7.13 12 12 0 0 0-2.29 4.29c-0.3 1.29-0.53 3.69 1.46 7.79 2.2 4.54 5.78 8.26 12.58 14 12.47 10.43 15.75 11.61 18.39 10.79a11.36 11.36 0 0 1 4.5-1.25 9.14 9.14 0 0 1 4.61 1.38c8.32 4.73 14.24 8.17 26.08 15.06a9.26 9.26 0 0 1 4.38 4.32c0.75 1.87 0.06 2.64 0.85 4.33s2.35 2.91 5.83 4.33c10.43 4.24 8.25 4.56 15 6.72 7.1 2.29 11.11 2.44 13.27 2.44 0 0 10.62 1.39 29.5 0 2.05-0.14 5.24-0.42 7.5-2.79 2.89-3 2.29-7.46 2.25-7.71-0.64-4.21-4.1-6.74-7.29-9-5.77-4.07-12.13-6-22.79-9.16a39.54 39.54 0 0 1-5.63-2.13 38.56 38.56 0 0 1-6-3.5 158.29 158.29 0 0 1-20.17-22.33c-1.1-1.5-2-2.78-2.12-3a129 129 0 0 1-11.33-20.63c-0.63-1.51-1.08-2.57-1.63-4.13a62.51 62.51 0 0 1-3.37-15.78"/>
  <path class="cls-5" d="m334.44 114.38c-14.45-3.56-19.66-5.21-38.47-13.2-10.48-4.45-17-7.84-23.65-12.6a125.57 125.57 0 0 1-11.34-9.24 134.56 134.56 0 0 1-18.36-20.69 115.5 115.5 0 0 1-8.93-14.87 6.94 6.94 0 0 1-0.62-2.11 1.17 1.17 0 0 1 1.68-1.33 5.93 5.93 0 0 1 1.08 0.51c1.11 0.68 2.2 1.41 3.33 2.06a46.22 46.22 0 0 0 12.92 5.28 24.16 24.16 0 0 0 13.38-0.38 11.43 11.43 0 0 0 7.64-7.5 17.7 17.7 0 0 0 0-10.07 16.22 16.22 0 0 0-3.28-6.1 39.27 39.27 0 0 0-9.06-7.84 103.06 103.06 0 0 0-12.3-6.92c-6.88-3.33-13.81-6.54-20.69-9.87a84 84 0 0 1-15.68-9.3 22 22 0 0 1-7.09-9 9.45 9.45 0 0 1-0.93-3.94 1.51 1.51 0 0 1 1.13-1.62c0.62-0.14 1 0.11 1.47 1a9.68 9.68 0 0 0 2.82 3.57c0.81 0.62 1.67 1.19 2.52 1.75a58.72 58.72 0 0 0 13.38 6.38 99.43 99.43 0 0 0 18.4 4.3c8.34 1.18 16.74 1.71 25.13 2.36 6.45 0.51 12.9 1 19.29 2.09a154.24 154.24 0 0 1 33.1 9.48 97.13 97.13 0 0 1 17.67 9.25c2.86 1.93 5.62 4 8.3 6.22a62.23 62.23 0 0 1 10.53 11.16 59.17 59.17 0 0 1 10.71 24.49q0.12 0.57 0.27 1.5s0.61 3.61 0.86 7.66a147.53 147.53 0 0 1-1.37 23.45" fill="url(#linearGradient916)"/>
  <path class="cls-10" d="m321.46 107.26c7.66 5.17 13.17 6.64 13 7.12"/>
  <path class="cls-11" d="m368.19 83.792a37.69 37.69 0 0 0-0.92-6.12c-2.21-9.46-7.56-15.86-10.66-19.48a53.25 53.25 0 0 0-5.61-5.69 55.57 55.57 0 0 0-7.79-5.58c-3.78-2.28-7.69-4.37-11.61-6.42-6.19-3.25-12.54-6.2-18.41-10a47 47 0 0 1-7.62-6.07c-1.51-1.51-2.93-3.11-4.44-4.62a8.43 8.43 0 0 0-1.78-1.29c-0.61-0.34-1-0.1-1 0.59a3.27 3.27 0 0 0 0.14 1.17c0.29 0.9 0.62 1.79 1 2.66a42 42 0 0 0 8.23 12.29c2.86 3.1 5.84 6.09 8.74 9.15a35.74 35.74 0 0 1 5.09 6.52 13.76 13.76 0 0 1 2 6.71 14.23 14.23 0 0 1-1.07 5.42 10.76 10.76 0 0 1-10.23 7.18 22.49 22.49 0 0 1-8.81-1.68 31.28 31.28 0 0 1-13-9.11c-0.7-0.85-1.4-1.69-2.14-2.51a3.5 3.5 0 0 0-0.93-0.73 0.7 0.7 0 0 0-1.13 0.6 7 7 0 0 0 0.05 1.58 26.69 26.69 0 0 0 1.59 5.6 99.24 99.24 0 0 0 6.33 14.36 60.28 60.28 0 0 0 8.21 10.87 176.18 176.18 0 0 0 21.87 20.46" fill="url(#linear-gradient-4)"/>
  <circle class="cls-3" transform="rotate(-19.33)" cx="292.61" cy="195.31" r="27.67"/>
  <circle class="cls-7" cx="340.76" cy="87.442" r="18.65"/>
  <line class="cls-8" x1="340.76" x2="340.76" y1="87.442" y2="59.772"/>
  <path class="cls-3" d="m340.76 87.442h-27.66a27.59 27.59 0 0 0 27.66 27.66z"/>
  <path class="cls-3" d="m340.76 59.772a27.68 27.68 0 0 1 27.67 27.67h-27.67z"/>
  <rect class="cls-9" transform="rotate(30)" x="360.92" y="-50.12" width="31.18" height="5.67"/>
  <circle class="cls-9" cx="336.21" cy="139.5" r="2.83"/>
  <circle class="cls-9" cx="363.21" cy="155.1" r="2.83"/>
  <path class="cls-3" d="m292.26 114.03-5.34 8.87 5.83 7.17 12.65-3.56c1.64 1.72 3.29 3.44 4.93 5.17-0.6 3-1.21 5.94-1.81 8.91l9.61 6 7.08-5.67 45.37 24.73q-0.7 5.31-1.42 10.63l7.09 3.54 8.5-7.08 14.88 4.25q2.49 4.25 5 8.5h8.51l4.25-8.5h8.5l4.26 8.5h7.77q2.13-4.6 4.25-9.21l-147.4-62.36"/>
  <path class="cls-3" d="m296.51 100.73a1.85 1.85 0 0 0-1.61-0.36 1.31 1.31 0 0 0-0.56 0.7c-0.62 1.53-2 2.15-3.08 3.91a9.27 9.27 0 0 0-1.25 4c-0.47 3.79 1.71 7.15 3.2 9.22 6.45 9 12.33 12.83 12.33 12.83 32.86 21.49 77.73 43.41 81.22 45.47a15.91 15.91 0 0 0 3.5 1.59 20.85 20.85 0 0 0 3.29 0.71 42.87 42.87 0 0 0 5.84 0.45l35.95-0.08a34.44 34.44 0 0 0 5.59-1.37 5 5 0 0 0 4.08-5.59 13 13 0 0 0-1.83-6.46c-3.91-6.32-135.59-60.47-146.67-65.02z"/>
  <path class="cls-4" d="m307.09 90.652a37.66 37.66 0 0 0-6.75 7.13 12 12 0 0 0-2.29 4.29c-0.3 1.29-0.53 3.69 1.46 7.79 2.2 4.54 5.78 8.26 12.58 14 12.47 10.43 15.75 11.61 18.39 10.79a11.36 11.36 0 0 1 4.5-1.25 9.14 9.14 0 0 1 4.61 1.38c8.32 4.73 14.24 8.17 26.08 15.06a9.26 9.26 0 0 1 4.38 4.32c0.75 1.87 0.06 2.64 0.85 4.33s2.35 2.91 5.83 4.33c10.43 4.24 8.25 4.56 15 6.72 7.1 2.29 11.11 2.44 13.27 2.44 0 0 10.62 1.39 29.5 0 2.05-0.14 5.24-0.42 7.5-2.79 2.89-3 2.29-7.46 2.25-7.71-0.64-4.21-4.1-6.74-7.29-9-5.77-4.07-12.13-6-22.79-9.16a39.54 39.54 0 0 1-5.63-2.13 38.56 38.56 0 0 1-6-3.5 158.29 158.29 0 0 1-20.17-22.33c-1.1-1.5-2-2.78-2.12-3a129 129 0 0 1-11.33-20.63c-0.63-1.51-1.08-2.57-1.63-4.13a62.51 62.51 0 0 1-3.37-15.78"/>
  <path class="cls-5" d="m334.44 114.38c-14.45-3.56-19.66-5.21-38.47-13.2-10.48-4.45-17-7.84-23.65-12.6a125.57 125.57 0 0 1-11.34-9.24 134.56 134.56 0 0 1-18.36-20.69 115.5 115.5 0 0 1-8.93-14.87 6.94 6.94 0 0 1-0.62-2.11 1.17 1.17 0 0 1 1.68-1.33 5.93 5.93 0 0 1 1.08 0.51c1.11 0.68 2.2 1.41 3.33 2.06a46.22 46.22 0 0 0 12.92 5.28 24.16 24.16 0 0 0 13.38-0.38 11.43 11.43 0 0 0 7.64-7.5 17.7 17.7 0 0 0 0-10.07 16.22 16.22 0 0 0-3.28-6.1 39.27 39.27 0 0 0-9.06-7.84 103.06 103.06 0 0 0-12.3-6.92c-6.88-3.33-13.81-6.54-20.69-9.87a84 84 0 0 1-15.68-9.3 22 22 0 0 1-7.09-9 9.45 9.45 0 0 1-0.93-3.94 1.51 1.51 0 0 1 1.13-1.62c0.62-0.14 1 0.11 1.47 1a9.68 9.68 0 0 0 2.82 3.57c0.81 0.62 1.67 1.19 2.52 1.75a58.72 58.72 0 0 0 13.38 6.38 99.43 99.43 0 0 0 18.4 4.3c8.34 1.18 16.74 1.71 25.13 2.36 6.45 0.51 12.9 1 19.29 2.09a154.24 154.24 0 0 1 33.1 9.48 97.13 97.13 0 0 1 17.67 9.25c2.86 1.93 5.62 4 8.3 6.22a62.23 62.23 0 0 1 10.53 11.16 59.17 59.17 0 0 1 10.71 24.49q0.12 0.57 0.27 1.5s0.61 3.61 0.86 7.66a147.53 147.53 0 0 1-1.37 23.45" fill="url(#linearGradient916)"/>
  <path class="cls-10" d="m321.46 107.26c7.66 5.17 13.17 6.64 13 7.12"/>
  <path class="cls-11" d="m368.19 83.792a37.69 37.69 0 0 0-0.92-6.12c-2.21-9.46-7.56-15.86-10.66-19.48a53.25 53.25 0 0 0-5.61-5.69 55.57 55.57 0 0 0-7.79-5.58c-3.78-2.28-7.69-4.37-11.61-6.42-6.19-3.25-12.54-6.2-18.41-10a47 47 0 0 1-7.62-6.07c-1.51-1.51-2.93-3.11-4.44-4.62a8.43 8.43 0 0 0-1.78-1.29c-0.61-0.34-1-0.1-1 0.59a3.27 3.27 0 0 0 0.14 1.17c0.29 0.9 0.62 1.79 1 2.66a42 42 0 0 0 8.23 12.29c2.86 3.1 5.84 6.09 8.74 9.15a35.74 35.74 0 0 1 5.09 6.52 13.76 13.76 0 0 1 2 6.71 14.23 14.23 0 0 1-1.07 5.42 10.76 10.76 0 0 1-10.23 7.18 22.49 22.49 0 0 1-8.81-1.68 31.28 31.28 0 0 1-13-9.11c-0.7-0.85-1.4-1.69-2.14-2.51a3.5 3.5 0 0 0-0.93-0.73 0.7 0.7 0 0 0-1.13 0.6 7 7 0 0 0 0.05 1.58 26.69 26.69 0 0 0 1.59 5.6 99.24 99.24 0 0 0 6.33 14.36 60.28 60.28 0 0 0 8.21 10.87 176.18 176.18 0 0 0 21.87 20.46" fill="url(#linear-gradient-4)"/>
  <circle class="cls-3" transform="rotate(-19.33)" cx="292.61" cy="195.31" r="27.67"/>
  <circle class="cls-7" cx="340.76" cy="87.442" r="18.65"/>
  <line class="cls-8" x1="340.76" x2="340.76" y1="87.442" y2="59.772"/>
  <path class="cls-3" d="m340.76 87.442h-27.66a27.59 27.59 0 0 0 27.66 27.66z"/>
  <path class="cls-3" d="m340.76 59.772a27.68 27.68 0 0 1 27.67 27.67h-27.67z"/>
  <rect class="cls-9" transform="rotate(30)" x="360.92" y="-50.12" width="31.18" height="5.67"/>
  <circle class="cls-9" cx="336.21" cy="139.5" r="2.83"/>
  <circle class="cls-9" cx="363.21" cy="155.1" r="2.83"/>
  <path class="cls-3" d="m292.26 114.03-5.34 8.87 5.83 7.17 12.65-3.56c1.64 1.72 3.29 3.44 4.93 5.17-0.6 3-1.21 5.94-1.81 8.91l9.61 6 7.08-5.67 45.37 24.73q-0.7 5.31-1.42 10.63l7.09 3.54 8.5-7.08 14.88 4.25q2.49 4.25 5 8.5h8.51l4.25-8.5h8.5l4.26 8.5h7.77q2.13-4.6 4.25-9.21l-147.4-62.36"/>
  <path class="cls-3" d="m296.51 100.73a1.85 1.85 0 0 0-1.61-0.36 1.31 1.31 0 0 0-0.56 0.7c-0.62 1.53-2 2.15-3.08 3.91a9.27 9.27 0 0 0-1.25 4c-0.47 3.79 1.71 7.15 3.2 9.22 6.45 9 12.33 12.83 12.33 12.83 32.86 21.49 77.73 43.41 81.22 45.47a15.91 15.91 0 0 0 3.5 1.59 20.85 20.85 0 0 0 3.29 0.71 42.87 42.87 0 0 0 5.84 0.45l35.95-0.08a34.44 34.44 0 0 0 5.59-1.37 5 5 0 0 0 4.08-5.59 13 13 0 0 0-1.83-6.46c-3.91-6.32-135.59-60.47-146.67-65.02z"/>
  <path class="cls-4" d="m307.09 89.222a37.66 37.66 0 0 0-6.75 7.13 12 12 0 0 0-2.29 4.29c-0.3 1.3-0.53 3.69 1.46 7.79 2.2 4.54 5.78 8.26 12.58 14 12.47 10.43 15.75 11.62 18.39 10.79a11.36 11.36 0 0 1 4.5-1.25 9.24 9.24 0 0 1 4.61 1.38c8.32 4.73 14.24 8.17 26.08 15.06a9.26 9.26 0 0 1 4.38 4.32c0.75 1.87 0.06 2.64 0.85 4.33s2.35 2.92 5.83 4.33c10.43 4.24 8.25 4.56 15 6.72 7.1 2.29 11.11 2.44 13.27 2.44 0 0 10.62 1.39 29.5 0 2.05-0.14 5.24-0.42 7.5-2.79 2.89-3 2.29-7.45 2.25-7.71-0.64-4.21-4.1-6.74-7.29-9-5.77-4.07-12.13-6-22.79-9.16a39 39 0 0 1-11.63-5.63 158.29 158.29 0 0 1-20.17-22.33c-1.1-1.5-2-2.78-2.12-3a129.12 129.12 0 0 1-11.33-20.58c-0.63-1.52-1.08-2.58-1.63-4.14a62.51 62.51 0 0 1-3.37-15.78"/>
  <path class="cls-5" d="m334.44 114.38c-14.45-3.56-19.66-5.21-38.47-13.2-10.48-4.45-17-7.84-23.65-12.6a125.57 125.57 0 0 1-11.34-9.24 134.56 134.56 0 0 1-18.36-20.69 115.5 115.5 0 0 1-8.93-14.87 6.94 6.94 0 0 1-0.62-2.11 1.17 1.17 0 0 1 1.68-1.33 5.93 5.93 0 0 1 1.08 0.51c1.11 0.68 2.2 1.41 3.33 2.06a46.22 46.22 0 0 0 12.92 5.28 24.16 24.16 0 0 0 13.38-0.38 11.43 11.43 0 0 0 7.64-7.5 17.7 17.7 0 0 0 0-10.07 16.22 16.22 0 0 0-3.28-6.1 39.27 39.27 0 0 0-9.06-7.84 103.06 103.06 0 0 0-12.3-6.92c-6.88-3.33-13.81-6.54-20.69-9.87a84 84 0 0 1-15.68-9.3 22 22 0 0 1-7.09-9 9.45 9.45 0 0 1-0.93-3.94 1.51 1.51 0 0 1 1.13-1.62c0.62-0.14 1 0.11 1.47 1a9.68 9.68 0 0 0 2.82 3.57c0.81 0.62 1.67 1.19 2.52 1.75a58.72 58.72 0 0 0 13.38 6.38 99.43 99.43 0 0 0 18.4 4.3c8.34 1.18 16.74 1.71 25.13 2.36 6.45 0.51 12.9 1 19.29 2.09a154.24 154.24 0 0 1 33.1 9.48 97.13 97.13 0 0 1 17.67 9.25c2.86 1.93 5.62 4 8.3 6.22a62.23 62.23 0 0 1 10.53 11.16 59.17 59.17 0 0 1 10.71 24.49q0.12 0.57 0.27 1.5s0.61 3.61 0.86 7.66a147.53 147.53 0 0 1-1.37 23.45" fill="url(#linearGradient916)"/>
  <path class="cls-10" d="m321.46 107.26c7.66 5.17 13.17 6.64 13 7.12"/>
  <path class="cls-11" d="m368.19 83.792a37.69 37.69 0 0 0-0.92-6.12c-2.21-9.46-7.56-15.86-10.66-19.48a53.25 53.25 0 0 0-5.61-5.69 55.57 55.57 0 0 0-7.79-5.58c-3.78-2.28-7.69-4.37-11.61-6.42-6.19-3.25-12.54-6.2-18.41-10a47 47 0 0 1-7.62-6.07c-1.51-1.51-2.93-3.11-4.44-4.62a8.43 8.43 0 0 0-1.78-1.29c-0.61-0.34-1-0.1-1 0.59a3.27 3.27 0 0 0 0.14 1.17c0.29 0.9 0.62 1.79 1 2.66a42 42 0 0 0 8.23 12.29c2.86 3.1 5.84 6.09 8.74 9.15a35.74 35.74 0 0 1 5.09 6.52 13.76 13.76 0 0 1 2 6.71 14.23 14.23 0 0 1-1.07 5.42 10.76 10.76 0 0 1-10.23 7.18 22.49 22.49 0 0 1-8.81-1.68 31.28 31.28 0 0 1-13-9.11c-0.7-0.85-1.4-1.69-2.14-2.51a3.5 3.5 0 0 0-0.93-0.73 0.7 0.7 0 0 0-1.13 0.6 7 7 0 0 0 0.05 1.58 26.69 26.69 0 0 0 1.59 5.6 99.24 99.24 0 0 0 6.33 14.36 60.28 60.28 0 0 0 8.21 10.87 176.18 176.18 0 0 0 21.87 20.46" fill="url(#linear-gradient-4)"/>
  <circle class="cls-3" transform="rotate(-19.33)" cx="292.61" cy="195.31" r="27.67"/>
  <circle class="cls-7" cx="340.76" cy="87.442" r="18.65"/>
  <line class="cls-8" x1="340.76" x2="340.76" y1="87.442" y2="59.772"/>
  <path class="cls-3" d="m340.76 87.442h-27.66a27.59 27.59 0 0 0 27.66 27.66z"/>
  <path class="cls-3" d="m340.76 59.772a27.68 27.68 0 0 1 27.67 27.67h-27.67z"/>
  <rect class="cls-9" transform="rotate(30)" x="360.92" y="-50.12" width="31.18" height="5.67"/>
  <circle class="cls-9" cx="336.21" cy="139.5" r="2.83"/>
  <circle class="cls-9" cx="363.21" cy="155.1" r="2.83"/>
 </g>
 <metadata>
  <rdf:RDF>
   <cc:Work rdf:about="">
    <dc:title>LogoBlack_SVG</dc:title>
   </cc:Work>
  </rdf:RDF>
 </metadata>
</svg>
